<?xml version="1.0" encoding="utf-8"?>
<!-- Generator: Adobe Illustrator 24.2.1, SVG Export Plug-In . SVG Version: 6.00 Build 0)  -->
<svg version="1.1" xmlns="http://www.w3.org/2000/svg" xmlns:xlink="http://www.w3.org/1999/xlink" x="0px" y="0px"
	 viewBox="0 0 792 612" style="enable-background:new 0 0 792 612;" xml:space="preserve">
<style type="text/css">
	.st0{fill:#FFFFFF;stroke:#737373;stroke-width:2;stroke-miterlimit:10;}
	.st1{fill:url(#SVGID_1_);}
	.st2{fill:#FFFFFF;}
	.st3{fill:#355CA2;}
	.st4{fill:#737373;}
	.st5{fill:#68A6DD;}
	.st6{fill:#C42B26;}
	.st7{fill:#D78031;}
	.st8{fill:#F5D733;}
	.st9{fill:#B7B7B7;}
	.st10{fill:#C6C6C4;}
	.st11{fill:#EBEBEC;}
	.st12{opacity:0.5;fill:#5698D2;}
	.st13{fill:#5698D2;}
	.st14{fill:#D47636;}
	.st15{fill:#5392CD;}
	.st16{fill:none;stroke:#232422;stroke-miterlimit:10;}
	.st17{fill:none;}
</style>
<g id="Capa_1">
</g>
<g id="Capa_2">
</g>
<g id="Capa_3">
	<g>
		<path class="st0" d="M503.95,95.86l-18.38-12.4h-24.96l-2.34,5.97l-7.7,19.64l-13.57,5.63c2.61,3.15,3.79,4.98,4.32,6
			c0.28,0.54-0.1,1.18-0.71,1.2l-12.4,0.42l17.21,39.6l13.08-6.42c4.09-2.01,7.49-5.08,9.94-8.83c5.97,3.41,13.73,5.81,23.64,5.35
			c0.62-0.02,1.28-0.38,1.87-0.84c1.46-1.13,2.37-2.81,2.69-4.64c0.28-1.58,1.74-8.49,2.06-9.49c1.65-5.18,2.96-10.2,3.46-17.81
			c0.21-3.11,1.75-7.76,1.78-11.04c0.01-0.77,0.02-1.72,0.04-2.75C504.05,102.29,504.1,98.24,503.95,95.86z"/>
		<radialGradient id="SVGID_1_" cx="380.9019" cy="409.7935" r="257.1908" gradientUnits="userSpaceOnUse">
			<stop  offset="0" style="stop-color:#66B4E2"/>
			<stop  offset="1" style="stop-color:#477EBF"/>
		</radialGradient>
		<path class="st1" d="M697.09,325.23C677.4,357.11,614.02,436.2,451.26,482.2c-1.12,0.32-25.78,7.28-63.45,11.04
			c-8.42,7.01-23.33,19.18-41.25,32.79c-15.11,11.48-33.56,17.73-52.54,17.73h-30.95c-7.14,0-14.04,2.46-19.67,6.86
			c-15.13,11.81-29.57,19.89-43.1,25.17c-66.47,25.97-138.78-23.14-139.33-94.5c0-0.32,0-0.65,0-0.97
			c0-62.78,46.71-115.2,107.27-123.49l0,0l37.57-8.44l-0.01-0.02l-2.41-10.76l0.16-0.12l-15.34-7.41
			c-4.34-2.13-7.88-5.27-10.31-9.13c-3.76-5.95-4.66-13.37-2.46-20.31c2.47-7.81,8.55-14.21,16.68-17.58l33.78-13.97
			c24.68-10.22,52.23-12.13,75.58-5.23l18.01,5.33c44.11-17.57,77.19-23.15,78.64-23.4c167.02-28.05,257.97,16.37,289.31,36.77
			C699.93,290.67,704.89,312.61,697.09,325.23z"/>
		<path class="st2" d="M241.57,537.51c-16.36,16.41-38.97,26.57-63.97,26.57c-49.85,0-90.27-40.42-90.27-90.27
			c0-44.56,32.31-81.58,74.77-88.92c0.21-0.04,0.44-0.08,0.65-0.11l21.49,82.25c-10.04,8.44-19.14,21.83-19.14,35.98
			c0,25.42,20.61,46.02,46.02,46.02C222.81,549.03,233.47,544.67,241.57,537.51z"/>
		<path class="st3" d="M293.55,248.69c-7.19-3.06-14.39-6.12-21.59-9.18c-1.6-0.68-3.19-1.36-4.79-2.04
			c-1.5-0.64-3.19-0.44-4.09,1.07c-0.75,1.25-0.41,3.46,1.07,4.09c7.24,3.08,14.48,6.16,21.72,9.24
			C287.6,249.05,290.6,248.14,293.55,248.69z"/>
		<path class="st3" d="M280.16,253.38c-2.99-1.27-5.97-2.54-8.96-3.81c-0.42-0.18-0.84-0.36-1.26-0.54c-0.77-0.33-1.46-0.53-2.3-0.3
			c-0.69,0.19-1.44,0.73-1.79,1.37c-0.37,0.69-0.55,1.53-0.3,2.3c0.22,0.69,0.68,1.49,1.37,1.79c2.99,1.27,5.97,2.54,8.96,3.81
			c0.42,0.18,0.84,0.36,1.26,0.54c0.77,0.33,1.46,0.53,2.3,0.3c0.69-0.19,1.44-0.73,1.79-1.37c0.37-0.69,0.55-1.53,0.3-2.3
			C281.31,254.48,280.85,253.68,280.16,253.38L280.16,253.38z"/>
		<path class="st3" d="M284.43,265.01c-2.99-1.27-5.97-2.54-8.96-3.81c-0.42-0.18-0.84-0.36-1.26-0.54c-0.77-0.33-1.46-0.53-2.3-0.3
			c-0.69,0.19-1.44,0.73-1.79,1.37c-0.37,0.69-0.55,1.53-0.3,2.3c0.22,0.69,0.68,1.49,1.37,1.79c2.99,1.27,5.97,2.54,8.96,3.81
			c0.42,0.18,0.84,0.36,1.26,0.54c0.77,0.33,1.46,0.53,2.3,0.3c0.69-0.19,1.44-0.73,1.79-1.37c0.37-0.69,0.55-1.53,0.3-2.3
			C285.58,266.11,285.13,265.3,284.43,265.01L284.43,265.01z"/>
		<path class="st3" d="M293.86,154.79c-2.99-1.27-5.97-2.54-8.96-3.81c-0.42-0.18-0.84-0.36-1.26-0.54c-0.77-0.33-1.46-0.53-2.3-0.3
			c-0.69,0.19-1.44,0.73-1.79,1.37c-0.37,0.69-0.55,1.53-0.3,2.3c0.22,0.69,0.68,1.49,1.37,1.79c2.99,1.27,5.97,2.54,8.96,3.81
			c0.42,0.18,0.84,0.36,1.26,0.54c0.77,0.33,1.46,0.53,2.3,0.3c0.69-0.19,1.44-0.73,1.79-1.37c0.37-0.69,0.55-1.53,0.3-2.3
			C295.01,155.89,294.56,155.09,293.86,154.79L293.86,154.79z"/>
		<path class="st3" d="M285.76,159.95c-2.99-1.27-5.97-2.54-8.96-3.81c-0.42-0.18-0.84-0.36-1.26-0.54c-0.77-0.33-1.46-0.53-2.3-0.3
			c-0.69,0.19-1.44,0.73-1.79,1.37c-0.37,0.69-0.55,1.53-0.3,2.3c0.22,0.69,0.68,1.49,1.37,1.79c2.99,1.27,5.97,2.54,8.96,3.81
			c0.42,0.18,0.84,0.36,1.26,0.54c0.77,0.33,1.46,0.53,2.3,0.3c0.69-0.19,1.44-0.73,1.79-1.37c0.37-0.69,0.55-1.53,0.3-2.3
			C286.91,161.05,286.45,160.24,285.76,159.95L285.76,159.95z"/>
		<path class="st4" d="M467.4,71.09c-0.22-0.66-0.66-1.16-1.23-1.4l-19.62-8.35c-1.45-0.62-2.9-0.22-3.61,1
			c-0.38,0.65-0.46,1.53-0.2,2.31c0.22,0.66,0.66,1.16,1.23,1.4l19.62,8.35c0.45,0.19,0.9,0.29,1.33,0.29
			c0.95,0,1.78-0.45,2.27-1.28C467.58,72.75,467.65,71.87,467.4,71.09z"/>
		<path class="st4" d="M478.41,64.7l-8.89-3.78c-1.45-0.62-2.9-0.22-3.61,1c-0.38,0.65-0.46,1.53-0.2,2.31
			c0.22,0.66,0.66,1.16,1.23,1.4l11.47,4.88V64.7z"/>
		<path class="st4" d="M454.52,83.07c0.93,0,1.75-0.45,2.26-1.28c0.38-0.64,0.46-1.51,0.21-2.29c-0.22-0.67-0.66-1.18-1.24-1.42
			l-27-11.49c-1.46-0.62-2.87-0.23-3.6,0.99c-0.38,0.64-0.46,1.51-0.21,2.29c0.22,0.67,0.66,1.18,1.24,1.43l27,11.49
			C453.63,82.98,454.09,83.07,454.52,83.07z"/>
		<path class="st4" d="M447.06,107.32l-30.55-13c-1.45-0.62-2.87-0.23-3.6,0.99c-0.38,0.64-0.46,1.51-0.21,2.29
			c0.22,0.67,0.66,1.18,1.24,1.42l30.55,13c0.46,0.2,0.92,0.29,1.35,0.29c0.93,0,1.75-0.45,2.26-1.28c0.38-0.64,0.46-1.51,0.21-2.29
			C448.08,108.07,447.64,107.57,447.06,107.32z"/>
		<path class="st4" d="M455.74,88.99l-27-11.49c-1.45-0.62-2.87-0.23-3.6,0.99c-0.38,0.64-0.46,1.51-0.21,2.29
			c0.22,0.67,0.66,1.18,1.24,1.42l27,11.49c0.46,0.2,0.91,0.29,1.35,0.29c0.94,0,1.76-0.45,2.26-1.28c0.38-0.64,0.46-1.51,0.21-2.29
			C456.77,89.74,456.33,89.23,455.74,88.99z"/>
		<path class="st5" d="M420.98,35.34c-5-2.38-10-4.76-15-7.13c-1.58-0.75-3.16-1.5-4.74-2.25c-1.48-0.7-3.19-0.57-4.16,0.91
			c-0.81,1.23-0.56,3.46,0.91,4.16c7.66,3.64,15.33,7.29,22.99,10.93V35.34z"/>
		<path class="st3" d="M405.76,73.12c-12.94-5.5-25.87-11.01-38.81-16.51c-1.82-0.77-3.64-1.55-5.46-2.32
			c-1.51-0.64-3.21-0.44-4.12,1.08c-0.75,1.26-0.41,3.48,1.08,4.12c12.94,5.5,25.87,11.01,38.81,16.51
			c1.82,0.77,3.64,1.55,5.46,2.32c1.51,0.64,3.21,0.44,4.12-1.08C407.59,75.98,407.25,73.75,405.76,73.12L405.76,73.12z"/>
		<path class="st5" d="M428.05,48.5c-11.22-5.34-22.44-10.67-33.67-16.01c-1.58-0.75-3.16-1.5-4.74-2.25
			c-1.48-0.7-3.19-0.57-4.16,0.91c-0.81,1.23-0.56,3.46,0.91,4.16c11.22,5.34,22.44,10.67,33.67,16.01c1.58,0.75,3.16,1.5,4.74,2.25
			c1.48,0.7,3.19,0.57,4.16-0.91C429.77,51.43,429.52,49.19,428.05,48.5L428.05,48.5z"/>
		<path class="st0" d="M533.72,251.08l-56.56-49.19l-33.35-55.57l-21.44,17.24l8.6,19.21c0,0,32.41,38.35,35.24,40.73l47.57,27.95
			C515.1,251.16,527.39,252.02,533.72,251.08z"/>
		<path class="st3" d="M344.49,263.86c0,0,18.33,78.3,14.36,91.24c-3.97,12.94-49.33,71.41-54.43,113.76l-37.99-18.22
			c0,0,32.32-76.19,56.13-105.62c0,0-66.68-107.43-57.15-137.04C274.94,178.37,344.49,263.86,344.49,263.86z"/>
		<path class="st6" d="M123.78,453.37c-1.49,6.32-1.68,11.33-1.6,14.33C121.9,462.33,122.46,457.13,123.78,453.37z"/>
		<path class="st6" d="M116.52,480.23c-2.43-12.47-0.4-23.93,1.39-29.16C114.63,464.11,115.55,474.67,116.52,480.23z"/>
		<path class="st6" d="M118.69,449.14c-0.24,0.49-0.51,1.13-0.77,1.92c0.16-0.67,0.34-1.35,0.54-2.03L118.69,449.14z"/>
		<path class="st7" d="M117.91,451.07c-3.28,13.04-2.36,23.6-1.39,29.16C114.09,467.77,116.12,456.31,117.91,451.07z"/>
		<path class="st7" d="M123.78,453.37c-1.49,6.32-1.68,11.33-1.6,14.33C121.9,462.33,122.46,457.13,123.78,453.37z"/>
		<path class="st8" d="M123.78,453.37c-1.49,6.32-1.68,11.33-1.6,14.33C121.9,462.33,122.46,457.13,123.78,453.37z"/>
		<g>
			<g>
				<path class="st9" d="M370.13,464.45c-0.26,1.52-1.13,3.02-2.74,4.3l-31.56,25.04c-14.93,11.84-35.51,18.46-56.81,18.26
					c-11.57-0.1-24.12-0.22-34.05-0.31c-2.91-0.02-5.34-0.98-7.03-2.41c-0.77,4.2,3.3,8.4,9.47,8.46c9.93,0.09,22.48,0.2,34.05,0.31
					c21.3,0.2,41.89-6.42,56.81-18.26l31.56-25.04C373.76,471.66,373.35,467.19,370.13,464.45z"/>
				<path class="st10" d="M370.13,464.45c-1.6-1.35-3.88-2.26-6.65-2.38l-75.42-3.05c-3.43-0.14-6.74,1.1-8.71,3.29l-39.7,43.7
					c-0.95,1.06-1.51,2.18-1.71,3.32c1.69,1.43,4.13,2.39,7.03,2.41c9.93,0.09,22.48,0.2,34.05,0.31
					c21.3,0.2,41.89-6.42,56.81-18.26l31.56-25.04C369,467.47,369.87,465.97,370.13,464.45z"/>
			</g>
			<g>
				<path class="st9" d="M342.38,299.17c-0.87-1.41-2.34-2.55-4.45-3.18l-41.44-12.26c-19.6-5.79-42.74-4.13-63.85,4.62
					c-11.47,4.74-23.91,9.89-33.76,13.96c-2.88,1.19-4.92,3.12-6.03,5.22c-2.45-3.88-0.08-9.68,6.03-12.21
					c9.85-4.07,22.29-9.22,33.76-13.96c21.11-8.74,44.25-10.41,63.85-4.62L337.93,289C343.09,290.54,344.47,295.16,342.38,299.17z"
					/>
				<path class="st10" d="M342.38,299.17c-1.05,1.99-2.95,3.81-5.67,5.04l-73.81,33.28c-3.36,1.51-7.15,1.61-9.99,0.22l-57.02-27.56
					c-1.37-0.67-2.38-1.57-3.04-2.62c1.11-2.1,3.15-4.03,6.03-5.22c9.85-4.07,22.29-9.22,33.76-13.96
					c21.11-8.74,44.25-10.41,63.85-4.62L337.93,296C340.04,296.63,341.51,297.76,342.38,299.17z"/>
			</g>
			<g>
				<defs>
					<path id="SVGID_2_" d="M401,259.17c162.24-27.24,248.85,15.94,276.82,34.14c6.22,4.05,8.07,12.31,4.18,18.63
						c-17.5,28.42-77.32,104.5-235.62,149.26c0,0-93.82,26.81-195.65,2.64l-13.86-61.68l-13.86-61.68
						C304.73,275.06,401,259.17,401,259.17z"/>
				</defs>
				<use xlink:href="#SVGID_2_"  style="overflow:visible;fill:#FFFFFF;"/>
				<clipPath id="SVGID_3_">
					<use xlink:href="#SVGID_2_"  style="overflow:visible;"/>
				</clipPath>
			</g>
			<g>
				<path class="st2" d="M208.6,437.68c-7.13-11.15-12.91-15.67-12.91-15.67l-1.51,12.63c-6.77-10.3-12.13-14.49-12.13-14.49
					l-1.36,11.25c-5.5-7.67-9.63-11.01-9.91-11.23l-8.87-37.84l33.13-2.2L208.6,437.68z"/>
				<path class="st11" d="M211.75,451.05l-29.69,17.24l-11.28-48.13c0.28,0.22,4.41,3.57,9.91,11.23l1.36-11.25
					c0,0,5.36,4.2,12.13,14.49l1.51-12.63c0,0,5.78,4.52,12.91,15.67L211.75,451.05z"/>
			</g>
			<g id="XMLID_1_">
				<path class="st10" d="M246.82,443.64c-36.19,9.51-49.47-55.83-52.95-78.51l33.62-7.55L246.82,443.64z"/>
				<path class="st9" d="M249.58,455.88l-38.18,8.58l-22.08-98.31l4.55-1.02c3.48,22.68,16.76,88.03,52.95,78.51L249.58,455.88z"/>
			</g>
			<path class="st11" d="M683.96,306.8c-0.27,1.78-0.88,3.51-1.87,5.13c-17.5,28.43-77.31,104.51-235.62,149.26
				c0,0-93.82,26.82-195.65,2.63l-13.85-61.68l-13.86-61.68c3.97-3.18,7.97-6.24,11.99-9.18l12.03,53.5l13.85,61.68
				c101.83,24.17,195.65-2.63,195.65-2.63C595.84,404.46,658.88,340.89,683.96,306.8z"/>
			<g>
				<g>
					
						<ellipse transform="matrix(0.9998 -0.0207 0.0207 0.9998 -6.8851 10.7414)" class="st12" cx="516.58" cy="338.69" rx="46.58" ry="46.58"/>
				</g>
				<g>
					<path class="st13" d="M509.38,306.67c-17.45,3.92-28.41,21.24-24.49,38.68c3.92,17.44,21.24,28.41,38.68,24.49
						c17.45-3.92,28.41-21.24,24.49-38.68C544.15,313.71,526.83,302.75,509.38,306.67z"/>
				</g>
				<path class="st2" d="M527.03,317.98c0.17,0.05,0.34,0.12,0.51,0.19c0.32,0.12-0.47-0.21-0.12-0.05c0.11,0.05,0.22,0.1,0.33,0.15
					c0.25,0.12,0.51,0.25,0.75,0.38c0.67,0.36,1.31,0.77,1.92,1.22c0.08,0.06,0.17,0.12,0.25,0.19c0.25,0.19-0.26-0.21-0.02-0.01
					c0.19,0.15,0.38,0.31,0.56,0.47c0.38,0.33,0.75,0.67,1.1,1.03c0.45,0.46,0.88,0.94,1.28,1.44c0.04,0.05,0.09,0.11,0.13,0.16
					c-0.1-0.12-0.12-0.16-0.01-0.02c0.1,0.14,0.2,0.27,0.3,0.41c0.22,0.31,0.43,0.62,0.63,0.94c0.49,0.77,1.58,1.15,2.39,0.63
					c0.77-0.5,1.15-1.57,0.63-2.39c-2.08-3.26-5.05-6.14-8.64-7.67c-0.35-0.15-0.7-0.31-1.07-0.42c-0.87-0.27-1.95,0.32-2.15,1.22
					C525.59,316.77,526.09,317.69,527.03,317.98L527.03,317.98z"/>
			</g>
		</g>
		<circle class="st3" cx="390.35" cy="43.76" r="2.41"/>
		<g>
			<path class="st4" d="M442.58,196.48c0,0,15.79-8.88,19.11-11.72c4.44-3.8,1.91-7.09,1.91-7.09l-14.14,2.23
				c0,0-10.52,3.87-10.63,4.86c-0.11,0.99-2.44,5.24-2.44,5.24L442.58,196.48z"/>
			<path class="st14" d="M445.56,200l-8,3.5c4.23-0.12,7.01-1.5,8.67-2.73L445.56,200z"/>
			<path class="st15" d="M439.97,138.51L439.97,138.51c-8.37-3.07-17.72,0.54-21.86,8.44l-1.92,3.66
				c-2.18,4.16-2.68,9.03-1.24,13.49c5.03,15.56,22.59,39.4,22.59,39.4s0.05-10.63,10.34-14.4c19.85-7.28,19.88-12.79,19.88-12.79
				c-4.36-3.4-13.07-20.07-18.34-29.67C447.37,142.87,444.01,139.99,439.97,138.51z"/>
			<path class="st3" d="M440.76,194.34c0.73,0.86,1.54,1.81,2.44,2.86l0.01,0.01c0.22,0.27,0.59,0.69,0.98,1.14
				c0.29,0.35,0.59,0.69,0.9,1.05c0.17,0.2,0.35,0.39,0.49,0.57c0.35,0.39,0.59,0.69,0.67,0.77c-0.01,0.01-0.1,0.07-0.26,0.19
				c-0.06,0.04-0.12,0.07-0.18,0.12c-0.17,0.12-0.37,0.24-0.56,0.36c-0.1,0.06-0.2,0.12-0.3,0.18c-0.07,0.04-0.14,0.08-0.23,0.12
				c-0.22,0.11-0.42,0.22-0.65,0.33c-0.16,0.08-0.32,0.14-0.48,0.21c-0.2,0.08-0.4,0.17-0.6,0.25c-0.55,0.2-1.14,0.37-1.78,0.53
				c-0.43,0.1-0.88,0.19-1.36,0.27c-0.7,0.1-1.46,0.17-2.27,0.2l-0.02,0c0,0,0-0.02,0-0.03c0-0.02,0-0.03,0-0.07
				c0-0.03,0.01-0.07,0.01-0.13l0.01-0.16c0-0.06,0.01-0.14,0.02-0.22l0.02-0.26c0.01-0.07,0.02-0.17,0.02-0.26
				c0.02-0.11,0.04-0.23,0.05-0.35c0.02-0.12,0.03-0.24,0.06-0.37c0.02-0.12,0.04-0.25,0.07-0.38c0.04-0.28,0.11-0.56,0.18-0.87
				c0.04-0.14,0.08-0.29,0.11-0.46c0,0,0,0,0.01-0.01c0.04-0.16,0.08-0.32,0.14-0.48c0.1-0.33,0.21-0.67,0.34-1.03
				c0.08-0.24,0.18-0.47,0.27-0.71c0.07-0.16,0.13-0.31,0.21-0.47c0.22-0.48,0.46-0.97,0.74-1.45
				C440.1,195.31,440.41,194.82,440.76,194.34z"/>
		</g>
		<path class="st3" d="M302.51,129.09c-0.85-0.24-18.86,8.01-21.7,39.12c0,0-11.49,2.45-7.1,24.39
			c4.39,21.94,53.18-21.17,53.31-21.17c0.13,0,1.29-25.29,0.65-27.49C327.02,141.74,318.02,133.47,302.51,129.09z"/>
		<path class="st0" d="M346.93,355.51l-36.62,32.55l-11.22-9.96c0,0,14.78-22.84,17.18-31.17
			C316.27,346.93,340.57,345.09,346.93,355.51z"/>
		<path class="st13" d="M423.57,295.18c-0.43,19.77-19.36,24.88-29.77,31.46c-10.42,6.59-42.1,29.35-42.1,29.35
			s-47.18-5.18-50.29,0.13c-0.15,0.26-0.54,0.19-0.62-0.09c-0.63-1.87-0.66-6.13,8.59-11.02c2.75-1.45-2.57-2.52-2.57-7.64
			c0-2.54,8.71-5.97,14.53-5.54c5.37,0.4-5.68-10.57,7.85-12.16c12.24-1.42,11.41-2.25,11.41-2.25c0.28-2.71-6.39-8.08,11.69-11.36
			c18.08-3.27,13.79-7.34,12.37-11.29c-0.91-2.55,1.75-4.08,3.88-4.89c0.2-0.07,0.19-0.35-0.02-0.42
			c-31.37-9.89-62.48-28.8-80.15-40.64c-11.29-7.56-19.44-19.09-22.33-32.37c-0.32-1.46-0.54-2.81-0.61-3.95
			c-0.35-5.91,1.36-11.77,4.79-16.6c12.5-17.62,25.73-24.49,25.73-24.49s-3.82,13.1-0.85,16.97c2.98,3.87,35.58,10.03,64.68,33.2
			C388.91,244.78,424,275.41,423.57,295.18z"/>
		<g>
			<path class="st3" d="M315.83,204.02c0.92,2.61,1.18,5.55,1.03,8.29c-0.34,6.09-3.55,11.3-8.78,14.44c-5,3-10.95,4.11-16.68,4.57
				c-0.97,0.08-0.98,1.6,0,1.52c8.76-0.7,18.82-3.05,23.96-10.9c2.87-4.38,3.52-9.8,2.73-14.9c-0.18-1.15-0.41-2.32-0.8-3.42
				C316.97,202.7,315.5,203.1,315.83,204.02L315.83,204.02z"/>
		</g>
		<path class="st3" d="M403.3,321.5c-3.86,2.11-7.65,3.92-10.72,5.85c-0.63,0.4-1.35,0.86-2.13,1.37
			c-9.51-4.34-12.68-9.66-12.68-9.66s5.95,1.48,17.86,2.69C398.37,322.03,400.96,321.89,403.3,321.5z"/>
		<path class="st4" d="M346.91,355.52l-7.75,6.89c-2.99-1.05-10.29-2.92-27.64-5.16c0.66-1.2,1.27-2.37,1.83-3.49
			C324.11,353.52,339.29,354.79,346.91,355.52z"/>
		<path class="st5" d="M355.02,218c0,0-3.84-1.14,36.4-17.83c13.61-5.65,24.07-9.76,32.16-13.56c15.83-7.43,22.64-13.65,26.41-27.71
			c5.7-21.25-5.14-34.68-29.75-39.93c-15.72-3.35-32.6,6.63-56.43,13.55c-18.59,5.4-31.37,2.72-50.33-1.18l-10.96-2.25
			c0,0,11.69,3.04,2.02,22.61c-1.21,2.44-2.52,4.83-4.14,7.01c-5.46,7.32-18.32,27.57,0.04,34.75
			C323.03,202.29,342.55,208.92,355.02,218z"/>
		<path class="st13" d="M448.13,164.35c-4.05,10.76-11,16.34-24.88,22.86c-4.27,2.01-9.21,4.1-14.92,6.46l16.68-45.23
			c0,0,2.27,40.16,23.11,15.89C448.12,164.34,448.12,164.35,448.13,164.35z"/>
		<path class="st0" d="M486.19,291.18c2.39,1.2,11.13,3.82,11.13,3.82l2.39-2.09l-7.57-3.52l-2.96-1.35
			c0.09-0.25,0.21-0.5,0.31-0.77c3.66,1.09,9.33,2.79,9.83,2.81c0.7,0.05,7.75,1.14,7.75,1.14l1.35-3.48l-8.89-2.38l-8.61-2.27
			c0.13-0.38,0.23-0.77,0.33-1.15c2.04,0.42,12.71,2.52,13.38,2.5c0.73-0.06,8.12,0.35,8.12,0.35l1.03-3.73l-9.41-1.55l-12-1.89
			c0.11-0.44,0.2-0.86,0.3-1.27l13.1,1.9l9.47,1.34l0.13-3.88c0,0-7.17-1.79-7.87-2.05c-0.7-0.27-13.89-1.61-13.89-1.61l-7.4-1.85
			l6.08-3.24l0.31-2.11c0.06-0.38-0.26-0.71-0.64-0.67l-10.44,1.16c0,0-5,3.93-10.91,5.26l-1-0.23
			c-19.57-5.06-50.54-36.28-50.54-36.28l8.32-49.35l-33.34-5.58c0,0-1.38,53.17,1.26,64.94c0,0,22.7,26.26,73.92,42.12
			C469.23,286.22,477.84,289.21,486.19,291.18z"/>
		<path class="st16" d="M451.78,259.86"/>
		<path class="st4" d="M405.17,242.28c0,0-2.4,4.89-4.82,6.34c-3.04-2.81-4.51-4.51-4.51-4.51c-0.44-1.93-0.75-4.98-1-8.72
			C398.13,236.83,403.46,239.52,405.17,242.28z"/>
		<path class="st16" d="M374.6,202.38"/>
		<path class="st15" d="M433.55,139.68L433.55,139.68c-4.55-8.42-14.64-12.16-23.58-8.75l-4.15,1.58c-4.71,1.8-8.57,5.36-10.59,9.98
			c-7.01,16.09-9.83,47.76-9.83,47.76s7.6-8.52,18.56-4.24c21.14,8.26,25.09,3.84,25.09,3.84c-1.09-5.83,3.76-25.44,6.34-36.9
			C436.4,148.44,435.75,143.74,433.55,139.68z"/>
		<path class="st4" d="M424.69,190.96c-3.99,0.89-9.53,1.72-15.57,1.44c-6.24-0.29-13.03-1.74-19.29-5.5
			c3.3-1.81,8.26-3.26,14.21-0.94c4.66,1.81,8.49,3.02,11.62,3.78C419.75,190.76,422.66,191.03,424.69,190.96z"/>
		<path class="st13" d="M394.23,194.37c-0.01,1.39-0.02,2.85-0.04,4.34c-22.79,9.72-34.92,16.3-39.18,19.29
			c-2.08-1.51-4.33-2.92-6.52-4.2c10.43-3.8,20.73-13.67,23.01-25.01c3.41-17.08,14.22-31.94,21.5-40.37
			c-3.81,11.8-6.05,27.66-7.04,36.1c-0.43,3.61-0.63,5.88-0.63,5.88C388.79,193.31,392.03,194.17,394.23,194.37z"/>
		<path class="st16" d="M467.37,119.27"/>
		<path class="st4" d="M468.56,146.97c-1.96,2.93-4.54,5.43-7.57,7.31c0.69-3.09,0.46-9.43-2.72-16.33
			C460.21,139.77,465.99,145.35,468.56,146.97z"/>
		<path class="st13" d="M351,417.18l-1.19,6.13c-3.22,0.67-10.32,0.15-10.32,0.15s-9.37-0.5-18.24-2.73
			c-4.64-1.14-9.14-2.76-12.09-5.01l-19.63-14.89l-5.94-4.5c-1.11-0.85-1.33-2.48-0.4-3.52c1.33-1.46,3.13-2.06,4.37-4.75
			c1.72-3.75,1.08-10.29,6.69-14.03c5.61-3.74,1.56-5.29,5.68-6.61c4.12-1.3,3.67,3.47,3.67,3.47c0.29,0.62,0.58,1.2,0.86,1.75
			c3.54,6.94,6.05,8.53,7.6,8.53c0.34,0,0.63-0.07,0.88-0.18c1.73-0.75,3.58-1.29,5.46-1.11c2.9,0.29,6.38,1.48,7.48,5.34
			c1.28,4.38,3.24,12.29,5.16,17.45c0.26,0.71,0.52,1.35,0.78,1.93c0.29,0.66,0.67,1.27,1.09,1.83h0.01
			c0.26,0.37,0.56,0.69,0.89,1.01c1.44,1.39,3.32,2.3,5.38,2.53l7.71,1.64C349.65,411.94,351.53,414.49,351,417.18z"/>
		<path class="st10" d="M350.62,419.2l-0.8,4.11c-3.24,0.67-10.33,0.15-10.33,0.15s-21.68-1.17-30.33-7.74l-25.55-19.39
			c-1.11-0.85-1.33-2.48-0.4-3.52c0.46-0.52,1-0.92,1.55-1.36l24.93,18.92c8.65,6.57,31.48,8.85,31.48,8.85
			S347.14,419.65,350.62,419.2z"/>
		<path class="st2" d="M321.39,396.54c0.69-0.42,1.5-0.79,2.18-1.06c1.58-0.63,3.25-1.09,4.96-1.08c1.1,0.01,1.1-1.7,0-1.7
			c-1.86-0.01-3.7,0.45-5.42,1.14c-0.88,0.35-1.77,0.74-2.58,1.24C319.59,395.63,320.44,397.11,321.39,396.54L321.39,396.54z"/>
		<path class="st2" d="M322.56,401.42c0.69-0.42,1.5-0.79,2.18-1.06c1.58-0.63,3.25-1.09,4.96-1.08c1.1,0.01,1.1-1.7,0-1.7
			c-1.86-0.01-3.7,0.45-5.42,1.14c-0.88,0.35-1.77,0.74-2.58,1.24C320.76,400.51,321.62,401.98,322.56,401.42L322.56,401.42z"/>
		
			<ellipse transform="matrix(0.3928 -0.9196 0.9196 0.3928 -175.7908 506.6574)" class="st2" cx="295.78" cy="386.45" rx="7.68" ry="5.57"/>
		<path class="st3" d="M333.84,407.45c-0.69,0.24-2.36,0.43-4.42,0.43c-0.41,0-0.84-0.01-1.28-0.02c-3.66-0.12-8.13-0.79-10.82-2.48
			l-0.15-0.09l-0.07-0.13c-0.06-0.11-5.77-10.89-5.77-23.97h1.22c0,11.96,4.89,21.95,5.55,23.25c2.87,1.74,7.34,2.19,10.71,2.21
			c1.85,0.01,3.36-0.11,4.12-0.21h0.01C333.2,406.8,333.51,407.13,333.84,407.45z"/>
		<path class="st2" d="M339.82,314.35"/>
		<path class="st3" d="M353.32,316.08c0,0-10.32,3.37-18.12,2.8c5.91-0.92,5.39-1.45,5.39-1.45c0.09-0.83-0.46-1.89-0.77-3.07
			C340.04,314.63,342.57,317.36,353.32,316.08z"/>
		<path class="st3" d="M328.12,332.04c-5.77,3.21-10.74,0-10.74,0v-0.01c1.38-0.21,2.73-0.29,3.95-0.19
			c2.04,0.16,1.7-1.35,1.24-3.36C323.86,332.7,328.12,332.04,328.12,332.04z"/>
		<path class="st3" d="M307.06,339.2c0.28,0.54,3.25,5.78,9.54,3.11c-0.26,0.24-4.51,4.11-10.26,4.49c0.88-0.58,1.89-1.18,3.03-1.79
			C311.75,343.76,308.07,342.79,307.06,339.2z"/>
		<path class="st3" d="M377.77,284.88c0,0-1.83,3.58-9.08,4.81c0-0.09-0.05-0.17-0.16-0.21c-26.37-8.31-52.55-23.01-70.73-34.52
			C300.92,256.76,352.1,286.02,377.77,284.88z"/>
		<g>
			<path class="st3" d="M339.05,208.94c-9.22-2.19-15.96-3.42-21.46-4.38c-0.57-0.1-1.13-0.21-1.68-0.3
				c-7.62-1.34-12.9-2.35-19.61-5.3c-10.59-4.67-13.52-12.8-14.32-16.77c4.04-3.91,7.62-6.64,10.15-8.38
				c-2.46,7.6-1.91,15.62,8.31,19.63C314.79,199.03,328.83,203.35,339.05,208.94z"/>
		</g>
		<path class="st3" d="M394.49,185.16c-0.02,1.2-0.05,2.56-0.07,4.04v0.01c-0.01,0.38-0.01,0.97-0.02,1.62
			c-0.01,0.49-0.01,0.97-0.02,1.48c0,0.28,0,0.56-0.01,0.8c0,0.56-0.01,0.97-0.01,1.1c-0.01,0-0.13-0.01-0.34-0.04
			c-0.07-0.01-0.15-0.02-0.23-0.04c-0.22-0.02-0.46-0.07-0.71-0.11c-0.12-0.02-0.24-0.05-0.37-0.07c-0.09-0.01-0.17-0.04-0.27-0.06
			c-0.26-0.07-0.5-0.12-0.76-0.19c-0.18-0.05-0.35-0.11-0.54-0.17c-0.22-0.07-0.44-0.15-0.66-0.23c-0.59-0.23-1.19-0.51-1.81-0.84
			c-0.42-0.23-0.84-0.47-1.28-0.75c-0.64-0.41-1.3-0.9-1.97-1.45l-0.01-0.01c0,0,0.01-0.01,0.02-0.02c0.01-0.01,0.02-0.02,0.05-0.06
			c0.02-0.02,0.06-0.05,0.1-0.1l0.12-0.12c0.05-0.05,0.11-0.11,0.17-0.16l0.2-0.19c0.06-0.05,0.13-0.12,0.21-0.19
			c0.1-0.07,0.2-0.16,0.29-0.24c0.1-0.09,0.2-0.17,0.31-0.26c0.1-0.09,0.21-0.17,0.33-0.26c0.23-0.19,0.49-0.38,0.77-0.57
			c0.13-0.09,0.27-0.18,0.42-0.29c0,0,0,0,0.01,0c0.15-0.1,0.29-0.19,0.45-0.29c0.32-0.19,0.65-0.39,1-0.58
			c0.23-0.13,0.48-0.26,0.72-0.38c0.17-0.07,0.33-0.16,0.5-0.23c0.51-0.23,1.06-0.45,1.63-0.64
			C393.27,185.46,393.87,185.29,394.49,185.16z"/>
		<path class="st4" d="M486.97,140.62c0.82,0.65,1.76,1.18,2.69,1.63c1.81,0.87,3.83,1.4,5.84,1.2c0.65-0.06,1.14-0.72,1.05-1.36
			c-0.09-0.67-0.71-1.12-1.36-1.05c-0.12,0.01-0.25,0.02-0.37,0.03c0,0-0.38,0.01-0.17,0.01c-0.22,0-0.45-0.02-0.67-0.04
			c-0.46-0.05-0.9-0.13-1.35-0.24c-0.22-0.05,0.05,0.02-0.08-0.02c-0.11-0.03-0.22-0.07-0.33-0.1c-0.2-0.06-0.39-0.13-0.58-0.21
			c-0.38-0.15-0.75-0.31-1.12-0.49c-0.31-0.15-0.61-0.32-0.91-0.49c-0.11-0.06,0.24,0.15,0,0c-0.05-0.03-0.11-0.07-0.16-0.1
			c-0.12-0.07-0.23-0.15-0.35-0.22c-0.21-0.14-0.42-0.29-0.62-0.44c-0.5-0.39-1.32-0.34-1.71,0.2
			C486.39,139.44,486.43,140.19,486.97,140.62L486.97,140.62z"/>
		<path class="st4" d="M487.01,137.13c-0.03,0.19-0.08,0.38-0.13,0.57c0.03-0.1,0.06-0.21,0.09-0.31c-0.13,0.46-0.3,0.9-0.54,1.31
			c0.06-0.09,0.11-0.19,0.17-0.28c-0.11,0.19-0.24,0.37-0.38,0.54c-0.04,0.04-0.08,0.09-0.12,0.13c-0.14,0.15,0.25-0.22,0.08-0.08
			c-0.09,0.08-0.18,0.15-0.28,0.22c-0.05,0.03-0.23,0.14-0.02,0.02c0.22-0.12,0.01-0.01-0.05,0.01c-0.05,0.02-0.1,0.04-0.16,0.06
			c-0.03,0.01-0.05,0.02-0.08,0.03c-0.17,0.06,0.27-0.06,0.16-0.04c-0.13,0.02-0.25,0.05-0.38,0.06c-0.03,0-0.06,0-0.09,0
			c-0.16,0.01,0.17,0,0.17,0c-0.03-0.03-0.21-0.01-0.25-0.02c-0.63-0.07-1.31,0.38-1.37,1.05c-0.06,0.64,0.37,1.29,1.05,1.37
			c1.29,0.14,2.49-0.35,3.32-1.36c0.58-0.72,0.91-1.58,1.14-2.46c0.04-0.16,0.08-0.32,0.1-0.48c0.09-0.63-0.4-1.31-1.05-1.37
			C487.71,136.03,487.11,136.46,487.01,137.13L487.01,137.13z"/>
		<path class="st4" d="M496.54,118.2l-0.01,0c-1.33-0.21-2.68-0.23-4.01-0.06l0,0c-0.78,0.1-1.27-0.79-0.79-1.4
			c0.53-0.68,1.3-1.44,2.38-2c1.57-0.81,3.44,0.32,3.44,2.08v0.53C497.55,117.88,497.07,118.28,496.54,118.2z"/>
		<path class="st4" d="M483.81,114.24c0,0,7.43-5.05,15.81-3.11c0.87,0.2,1.67-0.73,1.67-1.94l0,0c0-1.02-0.56-1.88-1.31-1.97
			C497.27,106.92,490.76,107.13,483.81,114.24z"/>
		<path class="st4" d="M508.21,94.95c-0.64,2.17-1.64,3.89-3.1,4.64c-4.67,2.36-11.66-0.33-13.38-2.7c-0.51-0.69-1.17-1.3-1.91-1.75
			c-2.73-1.63-8.94,1.96-11.29,10.55c-3.37,12.35-13.25,16.72-13.25,16.72s0.09-13.19-8.86-11.04c-4.4,1.05-2.46,6.52-1.63,11.04
			c0.4,2.15-4.6,2.7-6.1,1.1l-2.32-1.1c-12.61-2.47-16.57-8.66-17.74-13.12c-0.75-2.86-0.37-5.01-0.37-5.01
			c-4.7-7.58,4.02-7.58,4.75-7.34c6.63,2.2,1.67-7.51,1.67-7.51s-5.94-5.93-0.91-14.67c5.03-8.74,19.78-7.08,19.78-7.08
			c0.4-1.08,0.94-1.9,1.57-2.49c3.52-3.38,9.73,0.18,9.73,0.18c21.1-6.27,26.66,10.22,26.66,10.22l2.87,0.97
			C503.33,79.61,510.9,86.07,508.21,94.95z"/>
		<path class="st4" d="M494.55,87.08c-6.19,5.57-17.18-5.38-21.46,9.65c-4.3,15.03-2.84,3.69-13.49,2.54
			c-10.65-1.13-17.9,3.69-13.42,12.76c4,8.1-7.56,6.87-17.55-2.75c-0.75-2.86-0.37-5.01-0.37-5.01c-4.7-7.58,4.02-7.58,4.75-7.34
			c6.63,2.2,1.67-7.51,1.67-7.51s-5.94-5.93-0.91-14.67c5.03-8.74,19.78-7.08,19.78-7.08c0.4-1.08,0.94-1.9,1.57-2.49
			c1.78,0.96,3.38,2.19,4.48,3.76c0,0,18.28-3.69,25.36,7.65C484.95,76.59,500.73,81.52,494.55,87.08z"/>
		<path class="st4" d="M501.94,122.35c0,0,4.06,7.78,5.12,12.72c1.06,4.95-8.33,2-8.33,2c-0.93-0.37-1.4-1.41-1.08-2.36
			L501.94,122.35z"/>
		<path class="st3" d="M401.41,85.46c-2.1,2.74-3.38,4.36-3.38,4.36s-1.83-1.35-4.26-3.76c0.95-0.92,1.92-1.96,2.53-2.9
			c0.35-0.54,0.28-1.22-0.15-1.68l-1.08-1.18c-0.57-0.61-1.57-0.56-2.08,0.11c-0.61,0.8-1.41,1.65-2.2,2.42
			c-7.11-8.35-14.95-23.14-0.83-38.78c0-0.01,0.01-0.02,0.02-0.04c0.38-0.43,0.77-0.85,1.17-1.24c-0.13,0.18-0.54,0.75-1.06,1.67
			C387.21,49.62,380.96,65.81,401.41,85.46z"/>
		<path class="st13" d="M430.5,56.76c-0.78,0.43-1.57,0.82-2.37,1.18c-6.11,2.76-11.35,7.13-15.34,12.52
			c-3.42,4.6-6.58,8.77-9.09,12.06c-0.84,1.08-1.61,2.07-2.29,2.94c-20.45-19.65-14.2-35.84-11.32-41.02
			c0.52-0.91,0.92-1.48,1.06-1.67c0.04-0.04,0.05-0.06,0.05-0.06C398.66,40.1,412.26,39.59,430.5,56.76z"/>
		<path class="st5" d="M451.07,36.07c-1.67,5.43-10.57,15.33-20.57,20.68c-18.23-17.17-31.83-16.66-39.3-14.04
			c16.7-17.03,34.84-6.54,41.86-1.23c1.93,1.46,3.03,2.53,3.03,2.53s11.02-5.16,12.35-15.84c0.16-1.28,1.92-1.57,2.49-0.41
			C451.77,29.53,452.26,32.23,451.07,36.07z"/>
		<path class="st13" d="M353.88,173.49c0,0-4.94,19.97-17.19,33.09c-0.26,0.27-0.5,0.52-0.75,0.78c-9.87-4.85-22.57-8.86-35.5-13.92
			c-0.77-0.3-1.48-0.62-2.14-0.97c-3.54-1.85-5.6-4.28-6.61-7.02c-0.55-1.5-0.78-3.07-0.78-4.68c0-0.28,0.01-0.56,0.02-0.84
			c0.01-0.5,0.06-0.99,0.13-1.47c0.02-0.23,0.06-0.47,0.1-0.72c0.04-0.28,0.1-0.57,0.16-0.85c0.05-0.24,0.1-0.47,0.15-0.71
			c0.01-0.04,0.01-0.06,0.02-0.09c0.04-0.13,0.06-0.27,0.1-0.39c0.04-0.15,0.06-0.26,0.09-0.33c0.01-0.06,0.04-0.12,0.05-0.18
			c0.1,0.15,1,1.59,2.68,3.54c2.34,2.71,6.18,6.4,11.5,8.93C316.35,192.67,332.46,193.27,353.88,173.49z"/>
		<path class="st13" d="M395.35,58.36c-4.84-2.4-9.67-4.8-14.51-7.2c-0.68-0.34-1.36-0.68-2.04-1.01c-1.41-0.7-3.26-0.67-4.18,0.84
			c-0.76,1.25-0.67,3.43,0.84,4.18c4.84,2.4,9.67,4.8,14.51,7.2c0.68,0.34,1.36,0.68,2.04,1.01c1.41,0.7,3.26,0.67,4.18-0.84
			C396.94,61.28,396.85,59.1,395.35,58.36L395.35,58.36z"/>
		<path class="st4" d="M478.21,97.86l-27-11.49c-1.45-0.62-2.87-0.23-3.6,0.99c-0.38,0.64-0.46,1.51-0.21,2.29
			c0.22,0.67,0.66,1.18,1.24,1.42l27,11.49c0.46,0.2,0.91,0.29,1.35,0.29c0.94,0,1.75-0.45,2.26-1.28c0.38-0.64,0.46-1.51,0.21-2.29
			C479.23,98.61,478.79,98.11,478.21,97.86z"/>
		<path class="st4" d="M448.03,106.39l-6.87-2.92c-1.45-0.62-2.87-0.23-3.6,0.99c-0.38,0.64-0.46,1.51-0.21,2.29
			c0.22,0.67,0.66,1.18,1.24,1.42l7.27,3.09C445.77,109.37,446.65,107.66,448.03,106.39z"/>
		<path class="st4" d="M494.72,94.47c0.93,0,1.75-0.45,2.26-1.28c0.38-0.64,0.46-1.51,0.21-2.29c-0.22-0.67-0.66-1.18-1.24-1.42
			l-27-11.49c-1.46-0.62-2.87-0.23-3.6,0.99c-0.38,0.64-0.46,1.51-0.21,2.29c0.22,0.67,0.66,1.18,1.24,1.43l27,11.49
			C493.84,94.37,494.29,94.47,494.72,94.47z"/>
		<path class="st4" d="M498.6,81.62l-8.15-3.47c-1.46-0.62-2.87-0.23-3.6,0.99c-0.38,0.64-0.46,1.51-0.21,2.29
			c0.22,0.67,0.66,1.18,1.24,1.43l10.72,4.56V81.62z"/>
		<path class="st5" d="M412.71,119.92c-4.42-1.88-8.84-3.76-13.27-5.64c-1.6-0.68-3.19-1.36-4.79-2.04
			c-1.5-0.64-3.19-0.44-4.09,1.07c-0.75,1.25-0.41,3.46,1.07,4.09c5.44,2.32,10.89,4.63,16.33,6.95
			C408.78,122.06,410.56,120.54,412.71,119.92z"/>
		<path class="st5" d="M398.3,123.46c-7.19-3.06-14.39-6.12-21.59-9.18c-1.6-0.68-3.19-1.36-4.79-2.04
			c-1.5-0.64-3.19-0.44-4.09,1.07c-0.75,1.25-0.41,3.46,1.07,4.09c7.24,3.08,14.48,6.16,21.72,9.24
			C392.35,123.82,395.36,122.91,398.3,123.46z"/>
		<path class="st13" d="M283.04,196.65c-7.19-3.06-14.39-6.12-21.59-9.18c-1.6-0.68-3.19-1.36-4.79-2.04
			c-1.5-0.64-3.19-0.44-4.09,1.07c-0.75,1.25-0.41,3.46,1.07,4.09c7.24,3.08,14.48,6.16,21.72,9.24
			C277.09,197.01,280.09,196.1,283.04,196.65z"/>
		<path class="st5" d="M390.77,143.12c-0.08-1.69,0.7-3.51,1.93-4.92c-8.2-3.49-16.4-6.98-24.6-10.47c-1.6-0.68-3.19-1.36-4.79-2.04
			c-1.5-0.64-3.19-0.44-4.09,1.07c-0.75,1.25-0.41,3.46,1.07,4.09c10.19,4.34,20.38,8.67,30.57,13.01
			C390.83,143.61,390.78,143.38,390.77,143.12z"/>
		<path class="st5" d="M374.8,143.62c-11.34-4.83-22.69-9.65-34.03-14.48c-1.6-0.68-3.19-1.36-4.79-2.04
			c-1.5-0.64-3.19-0.44-4.09,1.07c-0.75,1.25-0.41,3.46,1.07,4.09c11.34,4.83,22.69,9.65,34.03,14.48c1.6,0.68,3.19,1.36,4.79,2.04
			c1.5,0.64,3.19,0.44,4.09-1.07C376.62,146.46,376.28,144.26,374.8,143.62L374.8,143.62z"/>
		<path class="st5" d="M356.02,122.67c-2.99-1.27-5.97-2.54-8.96-3.81c-0.42-0.18-0.84-0.36-1.26-0.54c-0.77-0.33-1.46-0.53-2.3-0.3
			c-0.69,0.19-1.44,0.73-1.79,1.37c-0.37,0.69-0.55,1.53-0.3,2.3c0.22,0.69,0.68,1.49,1.37,1.79c2.99,1.27,5.97,2.54,8.96,3.81
			c0.42,0.18,0.84,0.36,1.26,0.54c0.77,0.33,1.46,0.53,2.3,0.3c0.69-0.19,1.44-0.73,1.79-1.37c0.37-0.69,0.55-1.53,0.3-2.3
			C357.17,123.77,356.71,122.96,356.02,122.67L356.02,122.67z"/>
		<path class="st5" d="M384.66,163.55c-2.99-1.27-5.97-2.54-8.96-3.81c-0.42-0.18-0.84-0.36-1.26-0.54c-0.77-0.33-1.46-0.53-2.3-0.3
			c-0.69,0.19-1.44,0.73-1.79,1.37c-0.37,0.69-0.55,1.53-0.3,2.3c0.22,0.69,0.68,1.49,1.37,1.79c2.99,1.27,5.97,2.54,8.96,3.81
			c0.42,0.18,0.84,0.36,1.26,0.54c0.77,0.33,1.46,0.53,2.3,0.3c0.69-0.19,1.44-0.73,1.79-1.37c0.37-0.69,0.55-1.53,0.3-2.3
			C385.81,164.65,385.35,163.84,384.66,163.55L384.66,163.55z"/>
		<path class="st5" d="M388.72,153.87c-2.99-1.27-5.97-2.54-8.96-3.81c-0.42-0.18-0.84-0.36-1.26-0.54c-0.77-0.33-1.46-0.53-2.3-0.3
			c-0.69,0.19-1.44,0.73-1.79,1.37c-0.37,0.69-0.55,1.53-0.3,2.3c0.22,0.69,0.68,1.49,1.37,1.79c2.99,1.27,5.97,2.54,8.96,3.81
			c0.42,0.18,0.84,0.36,1.26,0.54c0.77,0.33,1.46,0.53,2.3,0.3c0.69-0.19,1.44-0.73,1.79-1.37c0.37-0.69,0.55-1.53,0.3-2.3
			C389.87,154.97,389.41,154.17,388.72,153.87L388.72,153.87z"/>
		<path class="st15" d="M408.06,137.02c-2.99-1.27-5.97-2.54-8.96-3.81c-0.42-0.18-0.84-0.36-1.26-0.54
			c-0.77-0.33-1.46-0.53-2.3-0.3c-0.69,0.19-1.44,0.73-1.79,1.37c-0.37,0.69-0.55,1.53-0.3,2.3c0.22,0.69,0.68,1.49,1.37,1.79
			c2.99,1.27,5.97,2.54,8.96,3.81c0.42,0.18,0.84,0.36,1.26,0.54c0.77,0.33,1.46,0.53,2.3,0.3c0.69-0.19,1.44-0.73,1.79-1.37
			c0.37-0.69,0.55-1.53,0.3-2.3C409.21,138.12,408.76,137.31,408.06,137.02L408.06,137.02z"/>
		<path class="st15" d="M399.96,142.28c-2.99-1.27-5.97-2.54-8.96-3.81c-0.42-0.18-0.84-0.36-1.26-0.54
			c-0.77-0.33-1.46-0.53-2.3-0.3c-0.69,0.19-1.44,0.73-1.79,1.37c-0.37,0.69-0.55,1.53-0.3,2.3c0.22,0.69,0.68,1.49,1.37,1.79
			c2.99,1.27,5.97,2.54,8.96,3.81c0.42,0.18,0.84,0.36,1.26,0.54c0.77,0.33,1.46,0.53,2.3,0.3c0.69-0.19,1.44-0.73,1.79-1.37
			c0.37-0.69,0.55-1.53,0.3-2.3C401.11,143.38,400.65,142.57,399.96,142.28L399.96,142.28z"/>
		<path class="st15" d="M415.49,131.86c-2.99-1.27-5.97-2.54-8.96-3.81c-0.42-0.18-0.84-0.36-1.26-0.54
			c-0.77-0.33-1.46-0.53-2.3-0.3c-0.69,0.19-1.44,0.73-1.79,1.37c-0.37,0.69-0.55,1.53-0.3,2.3c0.22,0.69,0.68,1.49,1.37,1.79
			c2.99,1.27,5.97,2.54,8.96,3.81c0.42,0.18,0.84,0.36,1.26,0.54c0.77,0.33,1.46,0.53,2.3,0.3c0.69-0.19,1.44-0.73,1.79-1.37
			c0.37-0.69,0.55-1.53,0.3-2.3C416.64,132.96,416.18,132.16,415.49,131.86L415.49,131.86z"/>
		<path class="st5" d="M377.62,159.95c-2.99-1.27-5.97-2.54-8.96-3.81c-0.42-0.18-0.84-0.36-1.26-0.54c-0.77-0.33-1.46-0.53-2.3-0.3
			c-0.69,0.19-1.44,0.73-1.79,1.37c-0.37,0.69-0.55,1.53-0.3,2.3c0.22,0.69,0.68,1.49,1.37,1.79c2.99,1.27,5.97,2.54,8.96,3.81
			c0.42,0.18,0.84,0.36,1.26,0.54c0.77,0.33,1.46,0.53,2.3,0.3c0.69-0.19,1.44-0.73,1.79-1.37c0.37-0.69,0.55-1.53,0.3-2.3
			C378.77,161.05,378.31,160.24,377.62,159.95L377.62,159.95z"/>
		<path class="st5" d="M309.03,154.79c-2.99-1.27-5.97-2.54-8.96-3.81c-0.42-0.18-0.84-0.36-1.26-0.54c-0.77-0.33-1.46-0.53-2.3-0.3
			c-0.69,0.19-1.44,0.73-1.79,1.37c-0.37,0.69-0.55,1.53-0.3,2.3c0.22,0.69,0.68,1.49,1.37,1.79c2.99,1.27,5.97,2.54,8.96,3.81
			c0.42,0.18,0.84,0.36,1.26,0.54c0.77,0.33,1.46,0.53,2.3,0.3c0.69-0.19,1.44-0.73,1.79-1.37c0.37-0.69,0.55-1.53,0.3-2.3
			C310.18,155.89,309.73,155.09,309.03,154.79L309.03,154.79z"/>
		<path class="st5" d="M316.4,148.72c-2.99-1.27-5.97-2.54-8.96-3.81c-0.42-0.18-0.84-0.36-1.26-0.54c-0.77-0.33-1.46-0.53-2.3-0.3
			c-0.69,0.19-1.44,0.73-1.79,1.37c-0.37,0.69-0.55,1.53-0.3,2.3c0.22,0.69,0.68,1.49,1.37,1.79c2.99,1.27,5.97,2.54,8.96,3.81
			c0.42,0.18,0.84,0.36,1.26,0.54c0.77,0.33,1.46,0.53,2.3,0.3c0.69-0.19,1.44-0.73,1.79-1.37c0.37-0.69,0.55-1.53,0.3-2.3
			C317.55,149.82,317.1,149.02,316.4,148.72L316.4,148.72z"/>
		<path class="st5" d="M334.47,185.66c-2.99-1.27-5.97-2.54-8.96-3.81c-0.42-0.18-0.84-0.36-1.26-0.54c-0.77-0.33-1.46-0.53-2.3-0.3
			c-0.69,0.19-1.44,0.73-1.79,1.37c-0.37,0.69-0.55,1.53-0.3,2.3c0.22,0.69,0.68,1.49,1.37,1.79c2.99,1.27,5.97,2.54,8.96,3.81
			c0.42,0.18,0.84,0.36,1.26,0.54c0.77,0.33,1.46,0.53,2.3,0.3c0.69-0.19,1.44-0.73,1.79-1.37c0.37-0.69,0.55-1.53,0.3-2.3
			C335.62,186.76,335.17,185.95,334.47,185.66L334.47,185.66z"/>
		<path class="st5" d="M345.67,181.4c-2.99-1.27-5.97-2.54-8.96-3.81c-0.42-0.18-0.84-0.36-1.26-0.54c-0.77-0.33-1.46-0.53-2.3-0.3
			c-0.69,0.19-1.44,0.73-1.79,1.37c-0.37,0.69-0.55,1.53-0.3,2.3c0.22,0.69,0.68,1.49,1.37,1.79c2.99,1.27,5.97,2.54,8.96,3.81
			c0.42,0.18,0.84,0.36,1.26,0.54c0.77,0.33,1.46,0.53,2.3,0.3c0.69-0.19,1.44-0.73,1.79-1.37c0.37-0.69,0.55-1.53,0.3-2.3
			C346.82,182.5,346.37,181.7,345.67,181.4L345.67,181.4z"/>
		<path class="st5" d="M382.87,175.35c-2.99-1.27-5.97-2.54-8.96-3.81c-0.42-0.18-0.84-0.36-1.26-0.54c-0.77-0.33-1.46-0.53-2.3-0.3
			c-0.69,0.19-1.44,0.73-1.79,1.37c-0.37,0.69-0.55,1.53-0.3,2.3c0.22,0.69,0.68,1.49,1.37,1.79c2.99,1.27,5.97,2.54,8.96,3.81
			c0.42,0.18,0.84,0.36,1.26,0.54c0.77,0.33,1.46,0.53,2.3,0.3c0.69-0.19,1.44-0.73,1.79-1.37c0.37-0.69,0.55-1.53,0.3-2.3
			C384.03,176.45,383.57,175.64,382.87,175.35L382.87,175.35z"/>
		<path class="st13" d="M269.65,201.34c-2.99-1.27-5.97-2.54-8.96-3.81c-0.42-0.18-0.84-0.36-1.26-0.54
			c-0.77-0.33-1.46-0.53-2.3-0.3c-0.69,0.19-1.44,0.73-1.79,1.37c-0.37,0.69-0.55,1.53-0.3,2.3c0.22,0.69,0.68,1.49,1.37,1.79
			c2.99,1.27,5.97,2.54,8.96,3.81c0.42,0.18,0.84,0.36,1.26,0.54c0.77,0.33,1.46,0.53,2.3,0.3c0.69-0.19,1.44-0.73,1.79-1.37
			c0.37-0.69,0.55-1.53,0.3-2.3C270.8,202.44,270.34,201.64,269.65,201.34L269.65,201.34z"/>
		<path class="st13" d="M273.92,212.97c-2.99-1.27-5.97-2.54-8.96-3.81c-0.42-0.18-0.84-0.36-1.26-0.54
			c-0.77-0.33-1.46-0.53-2.3-0.3c-0.69,0.19-1.44,0.73-1.79,1.37c-0.37,0.69-0.55,1.53-0.3,2.3c0.22,0.69,0.68,1.49,1.37,1.79
			c2.99,1.27,5.97,2.54,8.96,3.81c0.42,0.18,0.84,0.36,1.26,0.54c0.77,0.33,1.46,0.53,2.3,0.3c0.69-0.19,1.44-0.73,1.79-1.37
			c0.37-0.69,0.55-1.53,0.3-2.3C275.07,214.07,274.62,213.26,273.92,212.97L273.92,212.97z"/>
		<polyline class="st17" points="151.56,562.06 151.65,561.81 151.92,561.07 151.93,561.06 		"/>
		<path class="st17" d="M150.94,560.13c0.36,0.36,0.7,0.67,0.98,0.94c0.6,0.54,1,0.86,1.13,0.96c0.03,0.02,0.04,0.03,0.04,0.03"/>
		<g>
			<path class="st6" d="M130.24,499.23c0-0.04-0.02-0.07-0.02-0.12c-0.01-0.14-0.03-0.3-0.04-0.5c-0.01-0.08-0.02-0.16-0.02-0.24
				c-0.01-0.14-0.02-0.29-0.02-0.45c-0.01-0.2-0.02-0.42-0.02-0.65c0-0.17,0-0.36-0.01-0.55c0.01-0.34,0.01-0.71,0.01-1.1
				c0.02-1.56,0.17-3.54,0.54-5.77c0.02-0.18,0.06-0.36,0.09-0.54c0.03-0.16,0.06-0.33,0.09-0.49c0.03-0.15,0.05-0.31,0.09-0.46
				c0.77-3.85,2.2-8.31,4.84-12.82C130.28,485.94,130.21,497.38,130.24,499.23z"/>
			<path class="st6" d="M149.75,532.39c-10.83-10.8-11.03-15.14-11.03-15.4c2.08,2.09,3.87,3.23,5.06,3.82
				c0.44,0.22,0.78,0.37,1.04,0.47c0,0-0.02-0.02-0.03-0.04c-0.02-0.02-0.04-0.06-0.08-0.12c-0.19-0.28-0.38-0.57-0.57-0.83
				c-0.2-0.3-0.4-0.59-0.58-0.89l-0.06-0.09c-4.62-7.4-5.09-14.79-4.4-20.37c0-0.01,0-0.01,0.01-0.02c0.2-1.66,0.5-3.15,0.83-4.43
				c0.17-0.8,0.38-1.6,0.62-2.45l0-0.01c0.64-2.25,1.53-4.58,2.71-7.02l0.27-0.61l2.21,4.6c0,0-0.06-4.36,3.43-9.96
				c3.46-5.58,10.48-12.38,24.51-17.35l-1.31-5.72c-2.25,0.79-4.87,1.82-7.65,3.15c-13.39,6.39-30.57,19.65-28.69,45.13
				c-0.01,0.04,0,0.09,0,0.13c0.04,0.87,0.11,1.71,0.19,2.5c0.02,0.2,0.04,0.4,0.07,0.61c0.39,3.41,1.08,5.8,1.21,6.26
				c0.02,0.03,0.02,0.06,0.02,0.08c-1.38-0.44-4.19-3.44-4.19-3.44c0.38,9.14,8.23,18.92,8.72,19.53
				c-20.89-17.25-24.74-42.77-24.74-42.77c-4.41,0.28-6.92,4.46-6.92,4.46c-8.71-16.77,5.2-44.6,5.2-44.6
				c-3.86-2.13-10.49,1.59-10.49,1.59s0.05-0.22,0.17-0.6c0.01-0.05,0.04-0.12,0.06-0.18c0.01-0.05,0.03-0.13,0.06-0.19
				c0.1-0.32,0.21-0.65,0.32-0.96c0.17-0.47,0.37-1.04,0.62-1.69c0.06-0.15,0.12-0.32,0.19-0.49c4.47-11.74,12.16-20.3,16.4-23.76
				l0.01-0.01c0.48-0.48,0.99-0.95,1.5-1.43c8.11-7.43,19.45-14.65,35.1-19.44l-1.68-7.33c-11.5,3.58-25.66,9.87-37.76,20.89
				c-0.01,0.01-0.03,0.02-0.03,0.03c-13.95,12.7-25.12,31.69-26.3,59.98c0.44-8.14,9.23-16.69,12.72-17.1
				c-10.1,25.4-4.72,40.61,5.64,55.57c-1.13-5.57,0.1-10.61,1.91-14.64c6.39,17.84,17.05,29.19,27.26,36.37
				c16.69,11.65,30.88,7.17,31.49,6.96C172.19,540.56,158.33,540.92,149.75,532.39z"/>
			<path class="st7" d="M130.24,499.23c0-0.04-0.02-0.07-0.02-0.12c-0.01-0.14-0.03-0.3-0.04-0.5c-0.01-0.08-0.02-0.16-0.02-0.24
				c-0.01-0.14-0.02-0.29-0.02-0.45c-0.01-0.2-0.02-0.42-0.02-0.65c0-0.17,0-0.36-0.01-0.55c0.01-0.34,0.01-0.71,0.01-1.1
				c0.02-1.56,0.17-3.54,0.54-5.77c0.02-0.18,0.06-0.36,0.09-0.54c0.03-0.16,0.06-0.33,0.09-0.49c0.03-0.15,0.05-0.31,0.09-0.46
				c0.77-3.85,2.2-8.31,4.84-12.82C130.28,485.94,130.21,497.38,130.24,499.23z"/>
			<path class="st8" d="M161,406.24c-15.72,4.64-26.32,11.82-33.22,18.34l0.12,0.18c-0.42,0.27-0.84,0.59-1.26,0.93
				c-4.55,4.53-7.33,8.63-8.82,11.2c-0.1,0.18-0.2,0.35-0.29,0.51c-0.37,0.7-0.74,1.4-1.08,2.12c-0.04,0.07-0.05,0.1-0.05,0.1
				s5.04-0.75,8.3,1.2c0,0-6.9,14.41-7.4,28.55c0,0,5.67-3.04,8.5-2.94c0,0-2.21,20.91,4.45,33.03c0-0.01-0.01-0.02,0-0.05
				c-0.01-0.02,0-0.05,0-0.08c0-0.04-0.01-0.07-0.01-0.1c0-0.04-0.02-0.07-0.02-0.12c-0.01-0.14-0.03-0.3-0.04-0.5
				c-0.01-0.08-0.02-0.16-0.02-0.24c-0.01-0.14-0.02-0.29-0.02-0.45c-0.01-0.2-0.02-0.42-0.02-0.65c0-0.17,0-0.36-0.01-0.55
				c0.01-0.34,0.01-0.71,0.01-1.1c0.02-1.56,0.17-3.54,0.54-5.77c0.02-0.18,0.06-0.36,0.09-0.54c0.03-0.16,0.06-0.33,0.09-0.49
				c0.03-0.15,0.05-0.31,0.09-0.46c0.77-3.85,2.2-8.31,4.84-12.82c2.22-4.21,5.33-8.25,9.68-11.41c0,0-0.03,0.08-0.07,0.24
				c1.55-1.26,3.25-2.48,5.11-3.64c5.47-3.38,12.39-6.25,21.12-8.16L161,406.24z"/>
			<path class="st8" d="M130.24,499.23c0-0.04-0.02-0.07-0.02-0.12c-0.01-0.14-0.03-0.3-0.04-0.5c-0.01-0.08-0.02-0.16-0.02-0.24
				c-0.01-0.14-0.02-0.29-0.02-0.45c-0.01-0.2-0.02-0.42-0.02-0.65c0-0.17,0-0.36-0.01-0.55c-0.01-0.34-0.01-0.7,0.01-1.1
				c0.02-1.56,0.17-3.54,0.54-5.77c0.02-0.18,0.06-0.36,0.09-0.54c0.03-0.16,0.06-0.33,0.09-0.49c0.03-0.15,0.05-0.31,0.09-0.46
				c0.77-3.85,2.2-8.31,4.84-12.82C130.28,485.94,130.21,497.38,130.24,499.23z"/>
			<path class="st7" d="M171.61,452.58c-8.74,1.91-15.65,4.78-21.13,8.16c-1.85,1.16-3.56,2.38-5.11,3.64
				c0.04-0.16,0.07-0.25,0.07-0.25c-4.34,3.17-7.45,7.2-9.67,11.41c-1.85,3.52-3.1,7.15-3.92,10.49l-0.05,0.2
				c-0.1,0.38-0.18,0.75-0.26,1.13c-0.03,0.11-0.06,0.23-0.07,0.34c-0.04,0.2-0.08,0.4-0.13,0.59c-0.04,0.22-0.09,0.44-0.13,0.65
				c-0.1,0.52-0.18,1.04-0.26,1.53c-0.02,0.06-0.02,0.13-0.03,0.2c-0.06,0.33-0.11,0.66-0.15,0.99c-0.14,1.06-0.26,2.03-0.33,2.91
				c-0.03,0.3-0.05,0.59-0.07,0.86c-0.02,0.25-0.03,0.48-0.05,0.72c-0.01,0.03-0.01,0.06-0.01,0.08c-0.01,0.21-0.01,0.4-0.03,0.58
				c-0.02,0.39-0.03,0.74-0.04,1.04c-0.01,0.15-0.01,0.29-0.01,0.42c0.01,0.02,0,0.05,0,0.08c-0.01,0.15-0.01,0.29-0.01,0.41
				c-0.01,0.06,0,0.12,0,0.18c0,0.08,0,0.14-0.01,0.2c0.01,0.02,0.01,0.05,0.01,0.06c0,0.01,0,0.01,0,0.01
				c0.01,0.01,0.01,0.02,0.01,0.02c0,0.04,0.01,0.08,0.02,0.11c0,0.03,0,0.05,0,0.08c-0.01,0.02,0,0.03,0,0.04
				c-6.66-12.11-4.46-33.02-4.46-33.02c-2.83-0.11-8.5,2.94-8.5,2.94c0.51-14.14,7.4-28.55,7.4-28.55c-3.26-1.95-8.3-1.2-8.3-1.2
				s0.01-0.03,0.06-0.11c0.33-0.72,0.7-1.42,1.07-2.11c0.08-0.16,0.18-0.34,0.28-0.52c2.57-4.65,5.77-8.73,8.83-11.2
				c0.41-0.34,0.83-0.66,1.26-0.93l-0.12-0.17c6.9-6.52,17.51-13.7,33.22-18.34l-1.47-6.43c-15.65,4.8-27,12.01-35.1,19.44
				l0.14,0.21c-0.46,0.29-1.01,0.69-1.65,1.22l-0.01,0.01c-9.57,9.24-14.3,18.59-16.4,23.76c-0.06,0.17-0.13,0.34-0.19,0.49
				c-0.25,0.65-0.45,1.22-0.62,1.69c-0.11,0.31-0.21,0.64-0.32,0.96c-0.03,0.06-0.05,0.14-0.06,0.19c-0.02,0.06-0.04,0.13-0.06,0.18
				c-0.12,0.39-0.17,0.6-0.17,0.6s6.63-3.72,10.49-1.59c0,0-13.91,27.83-5.2,44.6c0,0,2.51-4.18,6.92-4.46
				c0,0,3.86,25.52,24.74,42.77c-0.49-0.6-8.33-10.39-8.72-19.53c0,0,2.81,3,4.19,3.44c-0.01-0.02-0.01-0.06-0.02-0.08
				c-0.14-0.46-0.82-2.85-1.21-6.26c-0.03-0.2-0.05-0.41-0.07-0.61c-0.08-0.78-0.14-1.62-0.19-2.5c0-0.04-0.01-0.09,0-0.13
				c-1.88-25.48,15.3-38.73,28.69-45.13c2.79-1.33,5.4-2.37,7.65-3.15L171.61,452.58z"/>
			<path class="st16" d="M105.1,448.58"/>
			<path class="st7" d="M170.71,448.66c-44.09,10.99-40.99,46.36-40.5,50.22c-0.01,0.06,0,0.12,0.01,0.17
				c0,0.03,0.01,0.07,0.01,0.09c0.01,0.02,0.01,0.05,0.01,0.06c0,0.01,0,0.01,0,0.01c0.01,0.01,0.01,0.02,0.01,0.02
				c2.94-28.92,21.24-37.64,34.49-40.11c2.79-1.33,5.4-2.37,7.65-3.15L170.71,448.66z"/>
		</g>
		<polyline class="st17" points="176.27,476.21 174.91,470.8 174.85,470.58 		"/>
		<path class="st2" d="M498.55,122.7l5.05,10.49c0.22,0.46-0.07,1.01-0.58,1.07c-1.86,0.23-5.75,0.59-7.49-0.14
			C493.2,133.14,498.55,122.7,498.55,122.7z"/>
	</g>
</g>
</svg>
