<?xml version="1.0" encoding="UTF-8"?>
<svg id="Capa_1" data-name="Capa 1" xmlns="http://www.w3.org/2000/svg" viewBox="0 0 250 250">
  <defs>
    <style>
      .cls-1 {
        fill: #d12827;
      }
    </style>
  </defs>
  <path class="cls-1" d="M127.44,135.59c.1-.15,.17-.26,.21-.36-.36,.03-.53,.23-.49,.59,.09,0,.18-.09,.29-.23Z"/>
  <path class="cls-1" d="M128.03,134.57c.15-.11,.23-.2,.22-.29-.28,.03-.44,.22-.5,.59,.04-.09,.13-.19,.28-.3Z"/>
  <polygon class="cls-1" points="155.01 204.68 155.08 204.57 154.96 204.57 155.01 204.68"/>
  <path class="cls-1" d="M180.17,27.16c-7.77,2.85-12.16,6.62-10.05,16.58,.46,2.17,.76,4.27-.69,6.05-.7,.86-.69,1.96,.03,2.81,.43,.51,1,.77,1.6,.77,.37,0,.76-.1,1.14-.3,.48-.25,.95-.51,1.46-.8l.75-.41,.15-.1c4.55-3.62,6.87-7.85,7.08-13,.07-1.82,.15-3.71,.28-5.55,.07-.95,.35-1.71,.83-2.23l.16-.18c.51-.54,1.57-1.65,.6-3.1-.98-1.46-2.49-.87-3.13-.62l-.23,.09Zm-2.67,5.97c-.12,1.15-.14,2.29-.16,3.41-.04,2.69-.08,5.23-1.55,7.53-.32,.5-.67,.99-1.09,1.5-.06-1.08-.23-2.1-.39-3.11-.16-.96-.3-1.86-.35-2.76-.15-3.11,.95-5.19,3.53-6.57Z"/>
  <path class="cls-1" d="M89.01,209.04c-5.87-3.42-11.36-7.62-16.33-12.55-7.36-7.3-13.13-15.74-17.15-24.91-2.09-.12-4.17-.33-6.21-.74,4.3,10.92,10.89,20.95,19.52,29.52,6.71,6.66,14.3,12.07,22.49,16.13-.91-1.64-1.61-3.43-2.02-5.23-.15-.65-.3-1.44-.32-2.21Z"/>
  <path class="cls-1" d="M87.76,83.75c2.25,0,4.65,.23,7.17,.74-3.83,2.55-6.02,7.34-6.43,12l5.62-1.03c.63-3,2.31-5.78,4.55-6.85,1.93-.78,3.97-1.18,6.08-1.18l2.5-.14c.99-.06,1.76-.88,1.76-1.87,0-.61-.3-1.18-.8-1.52l-2.42-1.69c-17.29-7.22-30.11-2.99-37.83,1.84-8.32,5.2-12.51,12.08-12.7,12.4-.85,1.44-1.65,2.91-2.41,4.4,2.37-.57,4.76-1.04,7.11-1.65,.67-1.09,9.83-15.42,27.78-15.42Z"/>
  <path class="cls-1" d="M161.87,9.38c-29.35,.35-53.4,24.53-53.61,53.88-.02,3.41,.27,6.79,.86,10.07v.86l.29,.3c.34,1.25,.68,2.72,.96,4.13,.34,1.74,.66,3.74,.87,5.84l.21,2.97c.06,1.62,.03,3.26-.12,4.85l5.49-1.01c.07-1.23,.1-2.5,.05-3.83l-.02-.62c-.12-2.86-.5-5.94-1.14-9.24-.43-2.18-.86-3.87-1.14-4.86v-.73s-.2-.2-.2-.2c-.46-2.76-.69-5.62-.67-8.48,.18-26.42,21.82-48.17,48.23-48.49,1.1-.01,2.2,.01,3.29,.07-10.37,3.96-18.09,13.36-19.58,24.89l-1.58,12.2,6.58-10.4c1.35-2.14,2.72-3.45,3.96-4.25-.93,2.11-1.62,4.72-1.48,7.69,.27,5.38,3.18,10.41,8.66,14.93,3.93,3.25,9.01,7.53,13.31,11.86l3.3,3.32,1.25-4.51c.93-3.36,2.15-6.47,3.65-9.29,.32,3.19,1.38,9.04,2.57,13.46l5.21-1.95c-2.67-9.22-2.73-16.17-2.61-18.92,.07-1.31-.71-2.52-1.95-3-1.23-.48-2.63-.12-3.5,.93-3.02,3.76-5.45,8.13-7.25,13.04-3.62-3.39-7.42-6.58-10.52-9.14-4.23-3.49-6.48-7.17-6.68-10.94-.28-5.24,3.51-9.18,3.53-9.21l3.06-3.06-4.1-1.43c-.2-.07-3.28-1.09-7.13,.44,4.13-7.57,11.96-12.74,20.99-13.21,.87-.05,1.74-.05,2.61,0,.91,.03,1.81-.29,2.47-.93,.65-.63,1.03-1.5,1.03-2.41,0-1.46-.98-2.78-2.35-3.19-5.44-1.69-11.1-2.53-16.83-2.44h0Z"/>
  <path class="cls-1" d="M215.94,114.29c.03,1.4,.3,2.85,.06,4.2-.44,2.5-.02,5.02-.36,7.52-.02,.14-.04,.29-.07,.42,1.07,5.05,1.74,10.35,1.61,15.49-.56,21.25-9.32,41.04-24.68,55.72-1.49,1.42-3.03,2.77-4.61,4.07,.22,2.1,.59,4.18,.85,6.27,2.61-1.98,5.12-4.11,7.52-6.4,16.4-15.68,25.76-36.81,26.36-59.51,.31-11.73-3.39-24.61-6.76-33.67,.03,1.96,.04,3.93,.07,5.89Z"/>
  <path class="cls-1" d="M85.56,62.33l1.25,1.99c.58,.92,1.57,1.47,2.66,1.47,.15,0,.31-.01,.46-.03,1.23-.18,2.24-1.07,2.56-2.26,.05-.16,.08-.33,.1-.51,.8-7.73,7.39-13.88,10.19-16.16,1.13-.93,2.17-1.98,3.09-3.15,2.02-2.56,3.41-5.62,4.01-8.82l.12-.62c.04-.23,.06-.45,.05-.68-.02-.71-.27-4.6-2.83-11.18-1.9-4.89-5.67-8.19-8.49-10.1-1.18-.8-2.7-.72-3.79,.21-1.09,.92-1.42,2.41-.82,3.7l1.47,3.2,.05,.12c.47,2.67,.76,4.54,.84,5.15-.11,.43-.51,1.69-1.3,3.86l-2.29,3.24-3.65,2.9c-1.67,1.32-3.1,2.9-4.27,4.68-1.32,2.02-2.26,4.24-2.79,6.6-.92,4.11-.92,4.2-.92,4.53,0,.21,.02,.38,.08,.72,.66,3.96,2.08,7.71,4.24,11.15Zm10.46-26.93c.23-.18,.43-.4,.6-.64l2.51-3.55c.16-.22,.28-.46,.38-.72,1.66-4.52,1.66-5.12,1.66-5.53,0-.19,0-.65-.61-4.25,.82,1.04,1.57,2.25,2.1,3.61,2.08,5.34,2.41,8.49,2.46,9.3l-.05,.28-1.55,3.88,.56-.56c-.53,1.24-1.22,2.41-2.06,3.48-.69,.88-1.47,1.67-2.33,2.37-2.63,2.15-8.55,7.61-10.87,14.95-1.3-2.41-2.19-4.99-2.65-7.69,.08-.4,.28-1.33,.76-3.47,.4-1.77,1.1-3.44,2.1-4.95,.88-1.33,1.95-2.52,3.2-3.51l3.78-3Z"/>
  <path class="cls-1" d="M75.31,118.52c0,.21,.02,.37,.06,.48l.14-1.12c-.11,.06-.18,.14-.19,.25,0,.05-.01,.19-.01,.4Z"/>
  <path class="cls-1" d="M168.54,86.48c-.41,.15-.83,.27-1.25,.36-2.07,.45-28.23,4.77-30.07,5.24-1.21,.31-1.61,1.06-1.67,2.26-.13,2.82-.23,7.69-.42,10.52-.26,3.79-.55,7.59-.78,11.38-.14,2.28-.02,7.97-.05,8.58-.17,4.08-.36,8.17-.37,12.25,0,3.97,.17,7.95,.33,11.93,0,.13,.02,.37,.04,.69,.04,.07,.08,.15,.12,.23,1.25,3.15,2.66,6.22,4.58,9.03,.39,.57,.27,1.15-.09,1.54,.04,.1,.09,.19,.13,.29,.33,.11,.58,.19,.67,.31,2.09,.36,4.32,.96,6.57,1.09,3.91,.22,7.78,1,11.72,.65,1.34-.12,2.7-.03,4.05-.02,5.23,.04,10.45,.1,15.67,.12,.46,0,4.96-.02,5.25-.32,.1-.1,.18-.19,.23-.28,.87-.49,1.4-1.55,1.21-2.77,1.36-3.14,.65-10.33-1.21-11.68-1.15-.09-2.18-.27-3.2-.25-4.58,.11-9.15,.27-13.72,.43-1.74,.06-3.57-.12-5.19,.38-1.61,.5-3.19,.61-4.8,.69-2.29,.12-4.58,.14-6.86,.18-.53,.01-1.06-.05-1.84-.1-.06-.95-.15-1.79-.17-2.63-.04-1.9-.06-3.8-.06-5.7,0-1.08,.04-2.17,.11-3.25,.05-.74,.5-1.21,1.21-1.38,1.69-.41,3.39-.76,5.08-1.2,.98-.25,4.32-1.3,5.41-1.65-.03-.93-.03-1.62-.08-2.32-.1-1.48,.09-2.88,.56-4.32,.63-1.94,.15-3.95-.12-6.15-3.67,.1-9.36,2.15-12.97,2.9-.02-.74-.07-1.16-.04-1.58,.31-4.02,.61-8.04,.97-12.05,.12-1.35,.34-2.7,.67-4,.13-.52,.59-1.14,1.07-1.34,1.13-.49,2.35-.81,3.56-1.1,.73-.18,1.58-.01,2.25-.3,2.39-1.04,9.84-1.53,12.29-2.46,1.17-.45,2.07-.7,2.44-1.93,.22-.72,.42-1.45,.67-2.3,.26-.3,.61-.7,.95-1.1,.18-2.19,.35-4.34,.52-6.48,.14-.36,.03-.72-.14-1.06-.8-1.66-1.57-1.96-3.25-1.33Z"/>
  <path class="cls-1" d="M146.55,220.93c-1.06-.09-2.01-.25-2.95-.23-4.22,.1-8.44,.24-12.67,.4-1.61,.06-3.3-.11-4.79,.35-1.48,.46-2.94,.56-4.43,.64-1.71,.09-6.7,.33-9.66,.44-1.15-10.22-2.92-26.78-3.51-32.02h0s-2.26-14.94-2.26-14.94c-.14-.92-1.04-1.53-1.95-1.3-2.56,.64-7.39,1.85-9.83,2.44-.84,.21-1.39,1.01-1.26,1.87,.94,6.47,4.46,31.3,5.13,34.54,.25,1.18-.95-4.57-.85-3.38,.22,2.69,1,8.85,1.85,11.44,.13,.4,.13,.84,.25,1.24,1.01,3.55,.37,5.97,1.5,9.48,.34,1.06,1.15,1.98,1.6,2.73,.36,.14,.41,.17,.46,.17,1.58,0,4.37-.11,6.63-.19v.02c2.82,.28,10.63,.34,13.48,.08,1.24-.11,2.49-.03,3.74-.02,4.82,.04,9.64,.1,14.46,.11,.42,0,4.58-.02,4.85-.29,.09-.09,.16-.18,.21-.25,.81-.46,1.3-1.43,1.11-2.56,1.26-2.9,.6-9.54-1.12-10.78Z"/>
  <path class="cls-1" d="M182.2,214.92c-1.12-3.85-1.31-7.91-2.65-11.74-.9-2.59-1.66-5.2-3.97-6.98-.39-.3-.65-.76-.99-1.16,3.91-1.38,.9-15.18,.74-15.76-.51-1.87-1.08-3.72-1.71-5.55-1.05-3.02-4.16-3.95-7.08-4.11-2.21-.13-4.48,.48-6.71,.78-.17,.02-9.37,2.57-9.37,2.57-1.93,1.57-2.23,3.19-2.25,4.91,0,.78,.15,1.56,.09,2.33-.5,6.06,.16,12.08,.78,18.06,.92,8.84,2.32,17.64,3.56,26.45,.11,.8,.39,1.68,.86,2.33,1.78,2.48,4.17,3.81,7.32,3.47,1.35-.15,2.72-.26,4.06-.49,.82-.14,1.66-.37,2.39-.75,3.65-1.95,7.34-3.85,10.87-6.01,3.09-1.88,5.18-4.55,4.08-8.33Zm-27.19-10.24l-.05-.11h.12s-.08,.11-.08,.11Zm3.25-10.65c-.37-1.65-.85-3.32-1.09-5.03-.3-2.11-.41-4.25-.57-6.38-.12-1.6,.75-2.87,2.28-3.41,1.58-.55,2.66,.02,3.05,1.67,.2,.84,.37,4.52,.88,7.46,.31,1.77-.23,3.62-1.55,4.84-.73,.67-1.6,1.11-3,.85Zm12.32,22.75c-1.47,.8-2.76,1.89-4.5,2.17-.07,.01-.13,.03-.2,.04-1.09,.3-2.21-.36-2.37-1.48l-.96-6.94c-.1-.72,.14-1.44,.65-1.95,.7-.7,1.44-1.45,2.24-2.25,.84-.84,2.21-.95,3.11-.16,.15,.13,.26,.27,.35,.43,1.1,2.17,2.05,4.44,2.96,6.71,.58,1.45,.18,2.62-1.28,3.42Z"/>
  <path class="cls-1" d="M191.21,139.86c-1.28-6.63-3.45-13.01-5.29-19.49-.2-.7-.48-1.37-.68-2.07-1.14-4.06-2.49-8.04-4.28-11.88-1.02-2.19-2.73-3.03-5.02-2.91-1.08,.05-4.17,.2-6.51,.29-1.63,.07-2.95,1.34-3.08,2.96-.44,5.38-1.24,13.38-1.46,17.38-.26,4.72-.42,9.45-.63,14.17-.05,1.24-.2,2.47-.17,3.71,.04,1.51,.78,2.12,2.25,2.08,1.3-.04,2.59-.08,3.89-.12,3.55-.13,3.97-.62,4.19-4.18,.11-1.82,.49-3.63,.73-5.33,.41-.21,.61-.35,.82-.4,.38-.08,.78-.12,1.17-.14,1.83-.12,2.14,.06,2.66,1.8,.52,1.72,.93,3.46,1.45,5.18,.46,1.53,.79,1.76,2.43,1.72,2.14-.06,4.28-.17,6.41-.29,.38-.02,.74-.17,1.34-.31-.07-.75-.08-1.46-.22-2.14Zm-14.99-15.99l-1.07,.04c-.28,0-.53-.18-.57-.46-.28-1.71,.06-4.25,.22-5.26,.02-.12,.18-.13,.22-.02l1.72,4.95c.12,.36-.13,.74-.51,.75Z"/>
  <path class="cls-1" d="M39.22,115.28c.51-.7,1.02-1.41,1.47-2.14,.94-1.53,1.73-2.9,2.5-4.17,.26-.43,.64-.82,.89-1.26,.2-.35,.65-.63,.36-1.18-.78-.42-1.04-.41-1.46,0-1.12,1.12-2.08,2.33-2.75,3.67-.1,.19-.26,.36-.39,.54-.57,.84-1.1,1.69-1.11,2.74,0,.5-.15,.97-.23,1.46-.02,.15-.02,.3-.03,.45,.07,.04,.14,.08,.21,.11,.18-.08,.45-.11,.54-.24Z"/>
  <path class="cls-1" d="M123.46,238.15c-1.97-.15-3.95-.14-5.92-.29-3.3-.26-6.6-.62-9.9-.91-.47-.04-.95,.09-1.57,.16,.08,1.6,1.19,1.95,2.09,2.23,4.97,1.52,10.07,2.16,15.26,1.8,.94-.07,1.86-.62,2.75-1.02,.52-.23,.88-.65,.52-1.45-1.03-.17-2.12-.42-3.23-.51Z"/>
  <path class="cls-1" d="M184.66,77.11c.53,1.54,1.45,1.78,2.45,1.7,2.73-.21,5.46-.18,8.15-.92,3.3-.9,6.68-1.48,10.01-2.24,.86-.19,1.71-.49,2.02-1.45-.79-.68-1.49-1.28-2.16-1.86-1.19,.1-1.45,.95-1.65,1.87-.02,.11-.25,.17-.43,.29-.19-.5-.35-.94-.55-1.5-.6,.05-1.16,.05-1.69,.16-4.72,.97-9.44,1.93-14.15,2.96-.7,.15-1.32,.65-1.99,.99Z"/>
  <path class="cls-1" d="M90.35,183.83c-.19-1.31-.5-2.61-.81-3.9-.21-.91-.57-1.71-2.24-1.47-.07,1.1-.31,2.19-.19,3.24,1.04,9.01,2.12,18.02,3.24,27.02,.11,.86,.52,1.68,.82,2.51,.32,.88,.72,1.73,.99,2.63,.26,.85,.41,1.72,1.79,1.94,.1-.69,.28-1.3,.26-1.91-.03-1.4-.08-2.81-.27-4.2-1.18-8.63-2.38-17.25-3.61-25.88Z"/>
  <path class="cls-1" d="M214.24,112.33c-.05-2.76-.06-5.52-.13-8.27-.02-.95-.23-1.83-1.45-1.85-.85,.27-1.11,.92-1.18,1.69-.17,1.95-.49,3.91-.48,5.86,.03,4.44,.2,8.89,.38,13.33,.04,1.05,.35,2.09,1.24,2.93,.99-.33,1.2-1.11,1.32-1.96,.34-2.49-.09-5.01,.36-7.52,.24-1.35-.04-2.8-.06-4.2Z"/>
  <path class="cls-1" d="M187.79,210.02c-.4-2.42-.23-5-1.88-7.1-.14-.17-.11-.47-.19-.7-.58-1.58-1.16-3.17-1.78-4.74-.08-.21-.44-.31-.97-.67-.03,.86-.11,1.43-.06,1.98,.12,1.21,.3,2.41,.49,3.61,.69,4.25,1.36,8.51,2.11,12.75,.25,1.43,.89,2.73,1.89,3.93,1.34-.54,1.32-1.47,1.22-2.38-.25-2.23-.46-4.47-.83-6.69Z"/>
  <path class="cls-1" d="M152.12,107.16c-.37-.11-1.03,.27-1.37,.62-.36,.38-.58,.96-.71,1.49-.23,.98-.44,1.99-.49,3-.08,1.34-.05,2.7,.03,4.04,.05,.83,.46,1.39,1.53,1.06,.12-.2,.34-.42,.39-.68,.51-2.75,1.03-5.5,1.43-8.27,.06-.4-.43-1.14-.8-1.26Z"/>
  <path class="cls-1" d="M124.64,107.12c.09,.16,.14,.4,.29,.53,1.62,1.45,3.23,2.9,4.9,4.29,.24,.2,.93,.18,1.15-.02,.22-.2,.24-.79,.14-1.16-.11-.39-.4-.77-.7-1.07-.56-.55-1.14-1.09-1.79-1.54-.86-.59-1.76-1.12-2.69-1.61-.57-.3-1.11-.25-1.32,.58Z"/>
  <path class="cls-1" d="M225.62,81.25c-.11-1.02-.91-1.84-1.94-1.91-.15,0-.31,0-.45,0-3.95,.48-7.89,1.01-11.82,1.58-6.11,.89-12.22,1.79-18.32,2.75,0,0-14.13,1.52-17.55,2.45-3.42,.92,2.76,12.45,4,14.59,.46,.79,6.08-.06,13.01-1.44,0,.05,.01,.1,.02,.16,.29,3.36,1.8,25.57,2.31,29.5,.16,1.25,1.55,9.63,1.55,10.88,.02,2.82,.03,5.63,.72,8.4,.1,.42,.07,.88,.16,1.32,.78,3.78,1.45,6.22,2.35,9.97,.27,1.14,1.04,2.15,1.46,2.98,.36,.17,.41,.21,.46,.21,2.29,.18,5.5,.37,7.79,.47,.93,.04,1.39-.64,1.42-1.51,.03-.77-.04-1.55-.13-2.31-.23-2.2-.58-3.57-.7-5.77-.22-4.25-.29-7.96-.41-12.22-.21-6.86-1.3-19.65-1.59-27.55h0s-1.32-17.6-1.32-17.6v-.07s13.63-3.2,13.63-3.2c.01,0,.02,0,.03,0h.03s.02-.01,.03-.01l3.78-.89c.47-.11,.83-.5,.9-.98,.26-1.86,.9-6.57,.56-9.8Z"/>
  <path class="cls-1" d="M108.03,107.33h.02s.02,0,.02,0l12.39-2.06c.34-.08,.6-.36,.65-.71,.19-1.36,.79-5.94,.54-8.29-.08-.74-.23-2.19-3.09-1.77-4.45,.65-25.7,4.22-30.14,4.92,0,0-8.34,.92-11.63,1.6-.41,.08-.67,.49-.58,.9,.5,2.19,2,8.61,2.75,9.89,0,0,9.34-1.53,9.25-1.59,.03,.02,.05,.04,.08,.06,.2,2.25,1.54,24.79,1.91,27.67,.12,.91,1.13,7.01,1.13,7.92,.01,2.05,.25,6.79,.75,8.8,.08,.31,.05,.64,.12,.96,.56,2.75,1.06,4.53,1.71,7.26,.2,.83,.76,1.57,1.06,2.17,.26,.12,.3,.15,.34,.16,1.67,.13,4,.27,5.67,.34,.68,.03,1.01-.47,1.03-1.1,.02-.56-.03-1.13-.09-1.69-.17-1.6-2.47-35.68-2.68-41.43h0s-.96-12.81-.96-12.81v-.05s9.71-1.13,9.71-1.13c0,0,.02,0,.02,0Z"/>
  <path class="cls-1" d="M131.1,118.77c.02,.23,.09,.45,.2,.67v-.62s-.06-.82-.06-.82c-.03-.32-.12-.61-.29-.87l.15,1.64Z"/>
  <path class="cls-1" d="M130.34,114.58c-.08-.17-.17-.26-.26-.25-.09,0-.13,.06-.12,.15l.02,.27s.04,.17,.1,.37c.06,.2,.14,.41,.23,.63,.09,.22,.19,.42,.3,.59,.11,.17,.19,.28,.24,.32l.11-.35s-.04-.18-.11-.4c-.07-.22-.14-.46-.24-.7-.09-.24-.18-.45-.26-.63Z"/>
  <path class="cls-1" d="M136.52,158.16c-.14-.27-.34-.7-.59-1.21-.91-1.93-2.35-4.99-2.47-5.16-.17-.23-.27-.36-.28-.41l.08,.04,.12-.05c-.04-.12-.16-.31-.37-.55-.2-.25-.34-.41-.41-.48-.22-.36-.37-.66-.45-.9-.08-.24-.2-.54-.38-.92-.3-.72-.63-1.46-1.01-2.22-.38-.76-.7-1.51-.94-2.25,0-.02-.02,0-.04,.02,0-.09-.02-.17-.06-.19-.05-.03-.11-.07-.16-.11-.06-.46-.25-.91-.56-1.33-.34-.45-.27-1.67-.53-2.01-.11-.22-.21-.41-.3-.59-.08-.17-.23-.37-.43-.58l-1.02-2.22-.21-.46c.08-.06,.19-.15,.35-.29,.25-.23,.53-.49,.82-.8,.29-.3,.55-.61,.78-.9,.23-.29,.36-.51,.39-.65,.04-.05,.1-.12,.15-.22,.06-.1,.09-.17,.08-.22,.32-.58,.55-1.14,.71-1.68,.16-.54,.32-1.14,.49-1.8l.1-.36c.23-.98,.49-1.95,.77-2.89,.28-.94,.41-1.94,.41-2.99,.03-.09,.05-.23,.06-.41,0-.19,.05-.33,.13-.43l-.04-.47c-.04-.37-.12-.78-.25-1.25-.14-.46-.26-.88-.39-1.23-.11-.22-.22-.38-.32-.49-.1-.1-.18-.27-.25-.49l-.04-.41c-.01-.14-.04-.33-.09-.58-.04-.25-.1-.51-.17-.78-.07-.27-.14-.52-.2-.74-.07-.22-.11-.37-.12-.47-.21-.85-.64-1.59-1.27-2.22-.63-.63-1.24-1.19-1.84-1.68-.2-.16-.37-.36-.5-.57-.14-.22-.33-.38-.57-.5-.25-.2-.48-.33-.69-.38-.21-.05-.44-.15-.68-.32l-.45-.37s-.12,0-.21,0c-.09-.02-.16-.02-.2-.02-.1-.08-.25-.2-.45-.34-.2-.14-.34-.21-.43-.2,0,.09,0,.18-.04,.28-.04,.1-.11,.15-.2,.16-.09,0-.17,0-.24-.04-.08-.04-.16-.06-.25-.05-.09,.06-.16,.11-.23,.16-.06,.05-.12,.08-.16,.08-.75-.2-1.47-.31-2.16-.32-.69,0-1.38-.02-2.07-.05-.09-.04-.26-.06-.49-.06-.23,0-.39,0-.48,0l-2.93,.27-.08-.07-5.86,.54c-.49,.13-1,.23-1.52,.28-.52,.05-1.05,.14-1.59,.28-.62,.2-1.2,.36-1.74,.47-.54,.12,.07,8.99,.34,9.01,.28,.02,.43,.16,.45,.44,.18,1.96,.29,3.89,.33,5.81l.05,2.06c0,.68,.05,1.35,.11,1.98l.1,1.1,.08,.13c.04,.08,.08,.25,.11,.47l.33,3.54s.02,.13,.06,.27c.03,.13,.05,.22,.06,.27l.04,.41c.01,.14,.05,.4,.1,.78,.06,.38,.12,.81,.19,1.26,.06,.45,.12,.86,.18,1.22,.06,.37,.09,.59,.1,.68l.59,6.41c0,.09,.05,.28,.12,.57,.07,.29,.13,.48,.19,.57l.05,.54c.02,.18,.08,.36,.19,.53,.04,.5,.11,1.02,.21,1.57,.09,.54,.14,1.06,.14,1.56,.2,.16,.31,.32,.32,.45,.02,.18,0,.34-.06,.48-.05,.14-.08,.29-.06,.42,.05,.54,.14,1.06,.28,1.55,.13,.49,.23,1.01,.28,1.55l.34,3.75c0,.1,.04,.28,.08,.55,.04,.27,.12,.45,.22,.53l.31,1.83c.1,.13,.16,.29,.18,.5,.02,.2,.08,.35,.18,.43,.04,0,.13,.06,.25,.18,.13,.12,.19,.21,.2,.26,.2,.16,.33,.29,.41,.37,.08,.08,.27,.12,.59,.08,.04,0,.11-.06,.19-.16l.19-.22c.05,.13,.23,.23,.54,.29,.3,.06,.53,.09,.66,.08,.08-.1,.16-.28,.23-.54,.07-.25,.14-.43,.23-.53,.04,0,.08-.03,.13-.08l.12-.15c.19,.07,.29,.21,.29,.42,0,.21,.13,.3,.4,.27-.02-.18,.02-.29,.1-.35l.23,.26c.16-.2,.25-.42,.25-.68,0-.25,.13-.39,.41-.41,.13-.01,.21,.02,.25,.11,.03,.09,.09,.13,.18,.12s.17-.04,.23-.09c.06-.05,.14-.08,.23-.09,.09,0,.14,0,.15,.05l.08,.06,.2-.02s.09-.03,.13-.08l-.08-.82,.68-.06c-.03-.32,.1-.53,.39-.62,.29-.1,.55-.16,.78-.18l-.12-1.29s0-.12,.04-.25c.04-.12,.05-.2,.05-.24,.09-.47,.17-.95,.25-1.43,.07-.49,.08-.98,.04-1.48l-.04-.47c-.06-.18-.12-.59-.18-1.23l-.14-1.5c.04-.14,.04-.49,0-1.06-.03-.57-.05-.94-.07-1.13-.01-.14-.06-.45-.15-.94-.09-.49-.17-.83-.23-1.01l-.53-5.8,.39-.24,1.3-.12s.1,.06,.14,.05l.2-.02,.13-.08,.34-.03c.2-.02,.42,.05,.65,.19h.59c.78,1.73,2.15,4.69,2.22,5.1,.09,.55,.23,1.08,.4,1.6,.07,.22,.21,.34,.41,.37l.13,.39c.23,.69,.51,1.37,.83,2.02l3.65,7.92c.08,.12,.17,.22,.3,.29l.49,1.15c.13,.1,.23,.25,.29,.44,.07,.2,.16,.32,.27,.37,.04-.01,.15,.03,.29,.12,.15,.09,.24,.16,.25,.2,.23,.12,.39,.2,.49,.27,.09,.07,.29,.05,.6-.05,.04-.02,.09-.08,.15-.2l.12-.26c.08,.12,.29,.16,.6,.16,.31,0,.53-.04,.66-.08,.05-.12,.08-.31,.09-.57,0-.26,.04-.46,.09-.57,.04-.02,.08-.05,.11-.1l.09-.18c.2,.03,.32,.14,.37,.34,.04,.2,.19,.25,.45,.16-.06-.17-.05-.29,.02-.36l.29,.19c.11-.23,.14-.47,.08-.72-.06-.25,.04-.41,.3-.49,.12-.05,.22-.03,.27,.05,.05,.08,.12,.1,.2,.08,.09-.03,.16-.08,.2-.14,.05-.07,.12-.11,.2-.14,.09-.03,.14-.02,.16,.02l.08,.04,.19-.06s.08-.05,.11-.11l-.27-.78,.65-.22c-.1-.3-.02-.53,.23-.7,.26-.16,.5-.28,.71-.35l-.35-1.03Zm-8.27-23.88c0,.09-.06,.19-.22,.29-.15,.11-.25,.2-.28,.3,.06-.37,.22-.57,.5-.59Zm-.61,.95c-.04,.09-.11,.21-.2,.36-.1,.15-.2,.23-.29,.23-.03-.36,.13-.56,.49-.59Zm-8.08-8.32c-.01,.25-.02,.53-.03,.84,0,.3-.02,.58-.02,.84-.02,.25-.01,.43,0,.53-.15,.25-.32,.38-.52,.41-.2,.02-.42,.08-.64,.2-.07,.04-.12,.1-.19,.17l-.18,.22s-.12,.02-.25,.05c-.13,.03-.22,.04-.25,.05l-.09,.11s-.07,.05-.1,.06c-.03,0-.07,.01-.1,.04-.03,.02-.06,.03-.1,.04-.16,.01-.24,0-.23-.03,.02-.04,.02-.12,0-.26-.33,.03-.65,.1-.94,.19-.3,.09-.61,.16-.95,.19l-.45,.04c-.09-.64-.18-1.26-.27-1.86-.08-.5-.14-1.02-.19-1.55l-.57-6.19,.14-.07,.65-.06c.81-.08,1.57-.1,2.28-.08,.72,.02,1.45,.15,2.22,.38,.15,.15,.25,.31,.3,.48,.05,.16,.08,.32,.09,.45,0,.13,.04,.37,.09,.73s.08,.56,.08,.63l.07,.75c.04,.4,.04,.68,.02,.81l.12,1.36c0,.1,0,.28,0,.53Z"/>
  <path class="cls-1" d="M87.42,147.08c-.09-.33-.2-.7-.36-1.12,.01-.1,.04-.17,.07-.22,.03-.04,.06-.12,.07-.21,.03-.24,.05-.45,.05-.64,0-.19-.04-.36-.13-.49-.04-.04-.07-.09-.06-.14l-.07-.07c-.05,0-.07-.09-.04-.28l-.05-.21c-.18-.94-.37-1.81-.58-2.61-.2-.8-.53-1.64-.98-2.52,.01-.1-.1-.33-.33-.7-.24-.37-.5-.78-.78-1.22-.28-.44-.57-.85-.86-1.22-.29-.37-.46-.6-.49-.7-.18-.23-.42-.47-.73-.72-.31-.25-.57-.49-.81-.72-.57-.41-1.22-.7-1.93-.9-.71-.19-1.39-.44-2.03-.75-.27,0-.56-.06-.88-.22-.33-.16-.61-.3-.85-.43-.26,0-.49-.08-.67-.26-.19-.18-.41-.27-.68-.26-.09,0-.31-.02-.65-.06v.23s-.38-.13-.38-.13c-.32,.04-.45,.21-.86,.09-.58-.17-1.37-.83-2.24-.74-.88,.09-2.09-1.07-2.93-1.35-.03,0-.05-.02-.08-.03-.88-.25-2.7-.15-3.64-.75-.98-.61-1.31-.38-2.24-.65-.93-.28-1.86-.74-2.77-1.02-.17-.05-.43-.16-.72-.29l-.03-.19c-.2-.04-2.28-1.03-2.97-1.48-.7-.46-1.34-1.15-1.92-2.09-.58-.94-.81-1.94-.67-3.01,.04-.27,.12-.45,.28-.57,.15-.11,.23-.2,.24-.25l-.42,.09c.04-.27,.1-.45,.19-.56,.1-.11,.15-.22,.16-.33l-.09,.08h-.16c.02-.15,.14-.36,.36-.6,.22-.25,.48-.51,.79-.78,.31-.28,.59-.52,.86-.74,.27-.22,.46-.33,.57-.34,.53,.04,1.09,.04,1.66,.03,.57-.02,1.16-.09,1.77-.21,.28-.06,.51-.19,.7-.38,.19-.19,.31-.29,.36-.29,.92-.03,1.8,.16,2.64,.56,.84,.4,1.51,.94,2.02,1.61,.09,.11,.23,.3,.41,.59,.18,.29,.31,.56,.38,.82,0,.05-.02,.23-.03,.52-.01,.29-.03,.55-.06,.76l-.21,1.68c.04,.11,.08,.3,.12,.59,.04,.29,.19,.33,.43,.11,.03,.16,.05,.42,.06,.8l.03,1.03c.01,.32,.01,.62,0,.92-.01,.29,0,.44,.07,.44h.16s.09-.09,.09-.09c.16,0,.23,.12,.19,.39-.04,.27,0,.45,.09,.56,.05,0,.14-.03,.25-.09,.12-.06,.18-.11,.18-.16,.11,0,.2,.07,.25,.23,.06,.16,.12,.26,.16,.31,.07-.11,.13-.19,.19-.25l.37-.33c.14,.21,.19,.45,.15,.71-.03,.27-.04,.53-.02,.8,.07-.11,.14-.27,.22-.49,.08-.21,.17-.33,.29-.33,.16,0,.25,.03,.27,.11,.02,.08,.08,.17,.17,.28,.08-.16,.16-.25,.28-.25,.21,0,.37,.07,.45,.23-.02-.69,.1-1.06,.35-1.13,.25-.06,.68-.13,1.28-.2,.16,0,.26-.05,.3-.13,.04-.08,.08-.15,.15-.2,.04,.11,.08,.18,.13,.24l.1-.16,.58-1.37,.37-.33,.13,.24c.1,.05,.18,.07,.23,.07h.25c.11-.01,.19-.04,.25-.1,.18-.16,.29-.35,.32-.57,.19-.65,.35-1.27,.49-1.89,.13-.61,.29-1.25,.49-1.89,.03-.27,.12-.74,.26-1.4s.25-1.11,.33-1.33l.03,.4c-.03,.22-.1,.5-.23,.85-.12,.35-.17,.58-.13,.68,0,.05,.01,.11,.06,.16l.07,.08c-.04,.27-.08,.55-.15,.84-.06,.29-.12,.6-.16,.92l-.07,.56c.07-.11,.12-.27,.14-.48l1.03-4.26,.36-.89c.22,.37,.31,.75,.26,1.15-.05,.4,0,.78,.18,1.15l.25-2c.12-.11,.18-.23,.17-.37,0-.13,0-.25,0-.36l.05-.4c.01-.1-.01-.32-.08-.63-.07-.32-.12-.53-.16-.63-.14-.58-.24-1.16-.3-1.75-.06-.58-.19-1.16-.38-1.74-.16-.42-.37-.88-.63-1.37-.26-.5-.36-1.01-.29-1.55-1.18-1.35-2.32-2.4-3.44-3.16s-2.71-1.11-4.77-1.05c-.65,.02-1.27,.09-1.85,.22-.58,.12-1.18,.22-1.78,.29-.83,.13-1.69,.2-2.58,.2-.89,0-1.76,.15-2.61,.44-.9,.25-1.66,.49-2.28,.75-.63,.26-1.28,.53-1.97,.82l-.26,.16c-.11,0-.2,.04-.26,.09l-.6,.26c-.22,0-.31-.1-.29-.31-.29,.17-.68,.44-1.15,.8-.48,.36-.88,.57-1.22,.63h-.33s-1.31,1.41-1.31,1.41c-.27,.44-.62,.85-1.05,1.23-.43,.39-.88,.74-1.35,1.08-.38,.07-.77,.32-1.15,.76-.64,.76-1.2,1.66-1.68,2.68s-.91,1.97-1.29,2.83c.02,.26,0,.42-.06,.48-.06,.05-.13,.16-.2,.32-.16,.43-.33,.85-.48,1.25-.16,.41-.26,.77-.3,1.09,.27,0,.41,.09,.41,.31s0,.4-.03,.56c-.08,.64-.19,1.28-.33,1.92-.14,.64-.25,1.26-.32,1.84-.16,1.28-.19,2.53-.08,3.75,.11,1.22,.57,2.29,1.37,3.23,.04,.11,.16,.25,.35,.43,.19,.18,.38,.37,.57,.58l.49,.62c.2,.16,.35,.26,.45,.31,.16,.05,.29,.16,.4,.34,.11,.18,.22,.27,.33,.27,.04,.1,.26,.24,.67,.41s.69,.31,.84,.41c.55,.35,1.13,.65,1.75,.9,.61,.25,1.2,.49,1.76,.74,.2,.1,.43,.16,.67,.18,.24,.02,.46,.08,.66,.18l.9-.59c.05,0,.16,.04,.31,.11,.15,.07,.25,.11,.31,.11,.26,.1,.51,.17,.74,.22,.24,.04,.48,.12,.74,.21,.75,.48,3.04,.31,3.64,.72v.09s.03,0,.03,0c.02,0,.04,0,.06-.02t0,0c.07,.09,.88,.24,1.4,.36,.04,.04,.08,.08,.11,.13,.04,0,.08,0,.12,0,.07,0,.18,.02,.2,.02,.02,0,.15,0,.2,.02,.12,.03,.25,.08,.36,.14,.08,.04,.16,.1,.24,.16,.06,0,.13,.02,.19,.04,.01,0,.03,0,.04,.01,.05,.02,.11,.04,.16,.06,.02,0,.04,0,.05,0,0,0,0,0,.01,0h0c.06,.02,.12,.05,.19,.07,.07,0,.14,.01,.21,.04,.11,.02,.21,.07,.3,.12,.18,0,.35,.03,.51,.1,.06,.02,.12,.04,.18,.08,.06,0,.12,0,.18,.02,.19,0,.36,.05,.53,.15,.08,.06,.16,.1,.24,.16,0,0,0,0,0,0,.08,.02,.15,.05,.22,.09,.08,0,.17,.01,.25,.03,.08-.02,.16-.03,.25-.03h.13c.16,0,.3,.01,.45,.05,.04,0,.08,0,.12,0,.19-.01,.37,.02,.54,.1,.17,.05,.33,.14,.46,.28,.02,.02,.04,.03,.06,.05,.16,.11,.3,.25,.41,.42l.04,.11s.04,0,.07,0c.05-.01,.1-.02,.15-.02,.17-.04,.34-.04,.52,0,.1,0,.2,0,.31,0,.02,0,.04,0,.07,0,.05,0,.11-.01,.17-.01,.22,0,.4,.03,.59,.11h.01c.19,0,.36,.05,.53,.15,.08,.05,.16,.09,.25,.13,.1,0,.2,0,.3,.01,.15,0,.29,.04,.41,.09h0c.1,.01,.19,.04,.29,.07,.17,.01,.33,.06,.48,.15,.03,.01,.06,.03,.09,.04,.03,0,.05,.03,.08,.04,.09,0,.19,.01,.28,.04,.19,.04,.35,.12,.49,.24,.03,.02,.05,.04,.08,.06,.18-.03,.36-.02,.52,.02,.15,.04,.29,.1,.41,.18,.36,.03,.66,.13,.94,.37,.03,.02,.05,.05,.07,.07,.38,.16,.76,.33,1.14,.51,.18,.12,.36,.26,.53,.4,.07,.1,.12,.2,.16,.32,.05,.02,.09,.04,.14,.07,.03,.01,.06,.03,.08,.05,.03,.02,.06,.04,.08,.06,.02,.02,.04,.04,.07,.06,.02,.02,.05,.04,.07,.07l.05,.07s.04,.05,.06,.08,.03,.05,.04,.08c.02,.03,.04,.06,.05,.09,.01,.03,.03,.05,.04,.08,.01,.03,.03,.06,.04,.09,0,.03,.02,.06,.03,.09,0,.03,.02,.06,.02,.1,0,.03,.01,.06,.02,.09s0,.06,0,.09c0,.06,0,.12,0,.17,0,.02,.02,.04,.03,.06,.09,.16,.14,.34,.14,.53v.2c.01,.25-.04,.49-.16,.72-.04,.05-.07,.1-.11,.15,.21,.69-.05,1.54-.81,1.79-.03,.06-.06,.12-.09,.18,.16,.64-.07,1.39-.72,1.67-.16,.4-.49,.73-1,.81-.17,.2-.42,.35-.73,.41-.36,.25-.74,.46-1.15,.65-.1,.58-.53,1.1-1.29,1.12-.26,0-.48-.04-.66-.13-.2,.16-.47,.27-.81,.28-.43,.02-.76-.13-.99-.37-.38,.05-.78,.09-1.18,.12-.21,.31-.57,.53-1.06,.54-.45,.02-.8-.15-1.04-.41-.18,.1-.39,.16-.64,.17-.28,0-.51-.05-.71-.15-.14,.05-.3,.08-.47,.09-.49,.01-.86-.18-1.09-.48-.17-.03-.34-.05-.52-.09-.08,.02-.18,.03-.27,.04-.38,.01-.68-.1-.9-.29-.44-.11-.89-.22-1.34-.36-.05,.11-.12,.22-.21,.31-.12,.14-.27,.24-.44,.3-.16,.09-.34,.14-.54,.14h-.2c-.25,.01-.49-.04-.71-.16-.1-.07-.19-.14-.29-.21-.1-.09-.18-.2-.25-.32-.27-.12-.47-.33-.59-.59-.13,.05-.29,.08-.45,.08-.86,.03-1.33-.59-1.39-1.26-.28-.04-.51-.16-.69-.32,.01-.05,.03-.1,.03-.16,.04-.27,.07-.68,.12-1.24,.04-.56-.05-.94-.29-1.15l-.02-.48c-.03-.16-.01-.32-.1-.47-.09-.16-.12-.32-.1-.48v-.08c.02-.05,.05-.11,.11-.16,0-.05,.04-.11,.1-.16,.04-.27,.01-.4-.07-.4-.08,0-.17-.02-.27-.07-.16,0-1.2,.7-1.34,.6l-.15-.08,.1-.8c-.15-.1-.25-.2-.32-.31-.07-.1-.18-.15-.34-.15-.05,0-.37,.16-.93,.47-.57,.31-.89,.52-.95,.63-.13,.16-.18,.27-.16,.32,.02,.05-.05,.08-.21,.09s-.29,0-.39-.03c-.11-.02-.24-.04-.39-.03-.11,0-.29,.12-.56,.34-.26,.22-.46,.41-.59,.57-.12,.11-.14,.18-.06,.2,.08,.02,.03,.09-.15,.2-.29,.17-.55,.29-.79,.35-.25,.06-.52,.2-.81,.42-.24,.22-.56,.41-.94,.55-.39,.15-.62,.3-.69,.46,.15,.1,.2,.17,.17,.2-.03,.03-.05,.09-.06,.2h-.24c-.11,0-.25,.17-.42,.5s-.29,.54-.36,.65l-.26-.47c-.12,.11-.22,.29-.3,.53-.08,.24-.16,.39-.21,.45l-.12,.32c-.02,.16,.02,.29,.11,.4,.09,.1,.13,.21,.12,.31l-.04,.32c-.07,.11-.11,.3-.11,.56,0,.27-.01,.43-.02,.48-.05,.43-.14,.91-.26,1.44-.12,.53-.29,1.02-.5,1.45l.02,1.12c.09,.1,.12,.22,.07,.36-.04,.13,0,.2,.1,.2,0,.09,0,.18,0,.27-.03-.04-.06-.09-.09-.13-1.14-1.55-2.38-3.06-3.58-4.52-.35-.42-.7-.85-1.05-1.27-1.41-1.73-2.94-3.86-3.51-6.54-.02-.1-.04-.2-.05-.3-.11-.64-.35-1.98-1.87-2.24-1.76-.3-2.46,1.11-2.86,1.92-1.29,2.6-2.09,5.33-2.39,8.12-.13,.64-1.28,7,2.48,11.99,2.57,3.4,6.75,5.31,12.45,5.69l1.92,.12-.38-.65c.35-.3,.68-.78,.93-1.5,.37-1.1,.51-2.29,.44-3.67,.49,.52,1.06,.97,1.71,1.35,.34,.2,.71,.35,1.1,.44,.38,.1,.78,.22,1.18,.37,.31,.09,.66,.23,1.06,.4,.4,.17,.79,.25,1.16,.25l1.99-.06c21.64,2.91,26.76-3.54,26.76-3.54h0c.25-.15,.49-.28,.74-.38,.42-.18,.86-.39,1.32-.65,.23-.1,.42-.26,.59-.48,.16-.21,.31-.42,.44-.61,.14-.2,.33-.34,.58-.45,.25-.1,.42-.27,.51-.51,.11-.38,.21-.62,.3-.72,.09-.1,.22-.34,.38-.72l.11-.22c.14-.24,.35-.49,.63-.76,.28-.27,.44-.57,.49-.9,.11,0,.22-.07,.34-.19,.12-.12,.25-.23,.37-.33,.49-.49,.95-1.12,1.38-1.89,.43-.77,.69-1.48,.79-2.15,.01-.09,0-.14-.06-.14-.05,0-.07-.04-.06-.14,.11-.05,.18-.13,.2-.25,.02-.12,.06-.22,.13-.32l.49-3.42c.02-.14,.09-.27,.21-.4,.12-.12,.25-.25,.38-.4,.01-.47-.02-.87-.1-1.2Zm-50.32,17.64c-7.96-.78-8.07-6.98-8.08-7.25v-.11c-.08-.75-.1-1.52-.04-2.34,.07-.89,.21-1.77,.39-2.61,.94,1.39,2.06,2.65,3.15,3.88,2.28,2.58,4.44,5.02,5.1,8.48-.17,0-.34-.02-.52-.04Z"/>
  <path class="cls-1" d="M146.8,212.44c-1.47-7.59-3.96-14.92-6.07-22.34-.23-.8-.55-1.58-.78-2.38-1.31-4.66-2.86-9.22-4.91-13.61-1.17-2.51-3.13-3.48-5.76-3.34-1.24,.06-4.78,.22-7.46,.33-1.87,.08-3.38,1.53-3.53,3.4-.5,6.16-1.42,15.34-1.67,19.92-.3,5.41-.49,10.83-.73,16.24-.06,1.42-.23,2.83-.19,4.25,.05,1.73,.9,2.43,2.58,2.38,1.48-.04,2.97-.09,4.45-.15,4.07-.14,4.55-.71,4.8-4.79,.12-2.09,.56-4.16,.84-6.11,.48-.24,.69-.41,.93-.45,.44-.09,.9-.13,1.35-.16,2.1-.13,2.46,.07,3.05,2.06,.59,1.96,1.06,3.97,1.65,5.93,.53,1.76,.91,2.01,2.79,1.96,2.45-.07,4.9-.2,7.35-.33,.43-.02,.86-.19,1.54-.36-.08-.86-.1-1.67-.25-2.46Zm-16.89-18.34l-1.78,.07c-.46,.02-.87-.3-.95-.76-.46-2.83,.1-7.03,.36-8.7,.03-.19,.3-.21,.37-.03l2.84,8.19c.2,.59-.22,1.21-.84,1.23Z"/>
</svg>